<?xml version="1.0" encoding="UTF-8" standalone="no"?>
<svg
   xmlns:dc="http://purl.org/dc/elements/1.1/"
   xmlns:cc="http://creativecommons.org/ns#"
   xmlns:rdf="http://www.w3.org/1999/02/22-rdf-syntax-ns#"
   xmlns:svg="http://www.w3.org/2000/svg"
   xmlns="http://www.w3.org/2000/svg"
   xmlns:sodipodi="http://sodipodi.sourceforge.net/DTD/sodipodi-0.dtd"
   xmlns:inkscape="http://www.inkscape.org/namespaces/inkscape"
   width="289.77231mm"
   height="92.75798mm"
   viewBox="0 0 289.7723 92.757981"
   version="1.1"
   id="svg8"
   inkscape:version="1.0.2 (e86c870879, 2021-01-15, custom)"
   sodipodi:docname="Abstract floral tailpiece, 1909.svg">
  <defs
     id="defs2" />
  <sodipodi:namedview
     id="base"
     pagecolor="#ffffff"
     bordercolor="#666666"
     borderopacity="1.0"
     inkscape:pageopacity="0.0"
     inkscape:pageshadow="2"
     inkscape:zoom="0.7"
     inkscape:cx="465.5688"
     inkscape:cy="229.40781"
     inkscape:document-units="mm"
     inkscape:current-layer="layer1"
     inkscape:document-rotation="0"
     showgrid="false"
     inkscape:window-width="1920"
     inkscape:window-height="1057"
     inkscape:window-x="-8"
     inkscape:window-y="-8"
     inkscape:window-maximized="1" />
  <metadata
     id="metadata5">
    <rdf:RDF>
      <cc:Work
         rdf:about="">
        <dc:format>image/svg+xml</dc:format>
        <dc:type
           rdf:resource="http://purl.org/dc/dcmitype/StillImage" />
        <dc:title></dc:title>
      </cc:Work>
    </rdf:RDF>
  </metadata>
  <g
     inkscape:label="Layer 1"
     inkscape:groupmode="layer"
     id="layer1"
     transform="translate(34.412184,-31.860269)">
    <path
       style="fill:#000000;stroke-width:0.264583"
       d="m 215.30105,124.31316 c -3.14157,-0.32751 -5.38186,-2.5913 -6.09443,-6.15836 -0.46173,-2.31138 -0.7896,-2.71249 -2.38152,-2.91357 -1.46418,-0.18494 -3.1391,-1.25238 -4.86456,-3.10021 -1.1105,-1.18927 -1.41973,-2.40473 -1.24713,-4.90205 0.12779,-1.84907 0.72117,-3.16139 2.13952,-4.73174 0.87705,-0.97104 1.37613,-1.27265 2.66416,-1.61005 1.96888,-0.51576 2.57018,-1.069678 3.28951,-3.030349 0.73207,-1.995407 3.06863,-4.513474 4.63291,-4.992803 1.29748,-0.397573 4.88745,-0.455742 6.18238,-0.100175 1.44982,0.398092 3.17465,2.028332 4.03373,3.812497 1.44266,2.996143 0.82733,6.06918 -1.74407,8.71018 -1.25719,1.29123 -2.06563,1.58849 -4.43748,1.63166 -1.13773,0.0207 -1.36219,0.11769 -1.7075,0.73773 -0.36461,0.65471 -0.35262,0.80105 0.14468,1.7653 0.29822,0.57828 1.05272,1.59834 1.67664,2.2668 0.9695,1.03871 1.3534,1.25479 2.64093,1.48647 1.93681,0.34851 3.92589,0.12839 5.2247,-0.57821 0.56529,-0.30752 1.16783,-0.56002 1.339,-0.56109 0.17116,-0.001 1.02763,-0.79365 1.90326,-1.7613 3.00014,-3.31543 3.69867,-7.10106 2.53405,-13.733467 -0.22649,-1.289922 -0.74262,-2.629308 -1.72909,-4.487219 -2.12688,-4.005688 -3.45682,-5.186004 -7.5736,-6.721498 -1.22347,-0.456346 -2.78888,-1.052961 -3.47866,-1.325832 -1.93061,-0.76372 -5.06888,-1.080326 -7.37553,-0.744088 -4.21348,0.614181 -8.09029,2.122968 -10.6056,4.127511 -1.38848,1.106524 -1.60564,1.624129 -1.75746,4.188957 -0.1184,1.999937 -0.27246,2.540659 -1.35945,4.771074 -2.28607,4.690812 -4.36152,6.629552 -7.5588,7.060892 -2.07277,0.27964 -2.38066,0.39454 -2.37758,0.8873 0.002,0.26035 0.45153,0.8065 0.99978,1.21367 2.84435,2.1124 4.06645,7.06263 2.61999,10.61253 -0.61182,1.50152 -2.55943,4.17699 -3.70691,5.09225 -1.26024,1.0052 -2.99916,1.8816 -4.68745,2.36245 -1.72781,0.49209 -5.36326,0.51523 -6.51732,0.0414 -1.82511,-0.74924 -3.57739,-2.93818 -4.76074,-5.94707 -0.80241,-2.0403 -1.09746,-2.20471 -2.75773,-1.53671 -0.74435,0.29949 -1.76935,0.66498 -2.27776,0.81219 -0.50843,0.14721 -1.71315,0.6814 -2.67718,1.18709 -0.96402,0.50568 -1.99911,0.92097 -2.3002,0.92285 -0.30108,0.002 -1.09122,0.35306 -1.75587,0.78041 -2.52489,1.6234 -7.8875,3.43811 -11.21706,3.79583 -1.23612,0.1328 -3.30123,0.43517 -4.58912,0.67192 -1.92107,0.35315 -2.80002,0.38217 -4.89388,0.16158 -2.95629,-0.31146 -7.72026,-1.6381 -10.06227,-2.80206 -0.89322,-0.44392 -1.77626,-0.80667 -1.96231,-0.80612 -0.35719,10e-4 -2.23838,-1.11231 -4.35279,-2.57621 -1.67184,-1.15749 -2.62471,-1.28353 -4.23337,-0.55991 -1.58054,0.71098 -2.24598,1.32157 -3.55041,3.2578 -1.06015,1.5736 -2.24858,2.61506 -2.9894,2.61968 -0.85723,0.005 -1.93802,-0.77514 -2.39996,-1.73313 -0.97887,-2.03003 -3.3041,-3.96507 -5.5054,-4.58156 -0.58088,-0.16268 -0.93529,-0.05 -1.77057,0.5631 -1.46446,1.07484 -5.374949,3.02054 -7.415055,3.68943 -4.034538,1.3228 -11.165843,2.49101 -15.411984,2.5247 -4.260428,0.0336 -10.994318,-0.68718 -14.027687,-1.50192 -1.896381,-0.50935 -4.904659,-1.62458 -6.022736,-2.23276 -0.365048,-0.19856 -0.971607,-0.46835 -1.347908,-0.59953 -0.376299,-0.13117 -1.66563,-0.89786 -2.865178,-1.70375 -2.064754,-1.38717 -2.977621,-1.70136 -3.642481,-1.25365 -0.160261,0.10791 -0.880966,0.88175 -1.60157,1.71964 -1.97896,2.30106 -4.390926,4.13927 -6.097342,4.64691 -1.996887,0.59405 -5.259337,0.36371 -7.538489,-0.53224 -1.896575,-0.74556 -4.75325,-2.95787 -5.866743,-4.54343 -1.066549,-1.51869 -1.644944,-5.23855 -1.129997,-7.26739 0.587297,-2.31388 2.767544,-5.45742 4.543726,-6.55127 1.927363,-1.18695 1.30727,-2.74411 -1.520452,-3.81811 -1.151224,-0.437242 -2.237296,-1.106289 -3.107382,-1.914216 -1.675501,-1.555816 -2.235598,-2.419679 -2.671308,-4.120073 -0.189542,-0.739702 -0.503035,-1.727445 -0.696652,-2.194977 -0.309258,-0.746785 -0.277534,-1.13275 0.261113,-3.176691 1.05649,-4.008959 1.120135,-3.763141 -1.26682,-4.892791 -2.447843,-1.15847 -4.43832,-1.62818 -8.554318,-2.018597 -3.263551,-0.309565 -7.9344043,-0.118109 -10.8453545,0.444544 -3.8098664,0.736405 -8.1949587,3.957867 -10.4010017,7.641003 -2.3281695,3.887031 -3.3102906,8.987728 -2.3512735,12.211448 0.4624202,1.55442 2.7240434,5.44025 3.8784917,6.66387 0.8835545,0.93649 4.20158032,3.17496 5.0918321,3.43514 0.3644737,0.10652 1.2003279,0.49125 1.8574536,0.85495 1.6771574,0.92826 4.6450979,1.0934 6.463246,0.35964 2.1066333,-0.85019 3.7592743,-2.38052 4.2229513,-3.91041 0.521225,-1.71979 0.497522,-2.17099 -0.162078,-3.08519 -0.654961,-0.90776 -1.323246,-0.95926 -2.541414,-0.19586 -0.758549,0.47538 -1.21999,0.54973 -2.9834691,0.48067 -1.8121042,-0.071 -2.2367942,-0.18619 -3.2330661,-0.87716 -0.6308152,-0.43749 -1.4312645,-1.20597 -1.7787836,-1.70773 -0.5762684,-0.83203 -0.6220783,-1.11515 -0.5207908,-3.21849 0.097197,-2.018438 0.2138633,-2.468635 0.9349947,-3.607996 1.1894114,-1.879228 2.3575069,-3.002448 3.994325,-3.840876 1.9553491,-1.001579 4.9947409,-1.065614 6.9904529,-0.147268 1.341293,0.617214 3.589077,2.745841 3.593175,3.402708 0.0038,0.602888 1.138905,1.436902 2.392263,1.757659 1.592344,0.407513 2.707592,1.284283 3.938037,3.095943 1.22316,1.80095 1.568029,2.65031 1.801212,4.43612 0.292687,2.24154 -0.893388,4.4045 -3.325549,6.06457 -2.064261,1.40894 -2.340434,1.99687 -2.129827,4.53398 0.151934,1.83033 0.101387,2.27366 -0.365142,3.2024 -0.64654,1.28709 -2.108902,2.64367 -3.584118,3.32485 -1.631285,0.75323 -4.494048,0.70062 -6.551342,-0.12042 -1.9558691,-0.78056 -2.4597962,-0.7975 -4.1074603,-0.13808 -0.6948892,0.27811 -2.2105271,0.72195 -3.368082,0.98633 -1.8613655,0.42513 -2.39647038,0.44445 -4.629256,0.1671 -3.5553348,-0.44164 -4.2731535,-0.65724 -5.6542943,-1.69824 -0.6702569,-0.50517 -1.2825052,-0.9181 -1.3605537,-0.91762 -0.078049,4.9e-4 -0.9375594,-0.52557 -1.9100287,-1.16901 -0.972469,-0.64344 -2.378799,-1.36519 -3.125179,-1.60388 -2.286287,-0.73115 -2.816334,-1.0819 -2.821231,-1.86686 -0.0025,-0.39416 -0.300601,-1.01163 -0.674613,-1.39718 -0.458002,-0.47212 -0.800323,-1.29598 -1.081155,-2.60203 l -0.410949,-1.91117 0.819857,-1.7458 c 1.19733,-2.54958 1.028072,-3.4662 -1.016649,-5.50569 -1.220611,-1.21749 -1.682722,-1.90919 -2.048968,-3.06693 l -0.472901,-1.494889 0.783458,-1.285224 c 0.430902,-0.706872 1.011044,-1.705461 1.289206,-2.219096 0.291658,-0.538551 1.24162,-1.439625 2.244111,-2.128603 1.320041,-0.907234 1.746112,-1.354471 1.770567,-1.858513 0.01771,-0.365078 0.0502,-1.794998 0.07218,-3.177612 0.06146,-3.863859 0.371434,-6.021435 1.00168,-6.972186 1.200506,-1.811015 4.7626031,-3.36645 8.2472977,-3.601296 1.8455251,-0.124377 2.2536155,-0.240195 2.7565656,-0.782294 0.7214857,-0.777657 0.5294263,-0.973562 -1.3457477,-1.37277 -0.7907331,-0.16834 -2.1283509,-0.610853 -2.9724875,-0.983374 l -1.5347877,-0.677297 -1.2310464,1.097322 c -1.459599,1.301042 -2.838291,1.743793 -4.696292,1.50819 -4.040723,-0.512399 -7.846341,-3.461152 -8.270426,-6.408274 -0.218388,-1.517667 -0.645526,-1.966181 -2.26583,-2.379199 -2.734417,-0.697033 -3.736325,-1.144021 -5.083723,-2.268056 -1.825448,-1.522831 -2.593867,-3.191609 -2.626757,-5.704542 -0.02381,-1.819037 0.110816,-2.263916 1.707168,-5.641552 0.743402,-1.572918 0.626349,-2.129969 -0.819525,-3.900082 -0.917719,-1.123516 -2.048123,-4.227834 -2.048424,-5.625379 -2.59e-4,-1.019289 0.851834,-4.319599 1.309615,-5.07262 0.511199,-0.840896 2.535869,-2.089222 3.747558,-2.310597 0.55303,-0.101052 1.878102,-0.189151 2.944605,-0.195805 1.874669,-0.0117 1.994817,-0.05215 3.616043,-1.218565 0.922319,-0.663558 2.151677,-1.451163 2.731907,-1.750219 0.580228,-0.299066 1.489073,-0.965209 2.019653,-1.48032 0.938316,-0.910952 1.021356,-0.93664 3.036908,-0.939296 1.479696,-0.0022 2.527185,0.164246 3.663389,0.581235 1.5507819,0.569155 3.8567947,2.051227 4.6383374,2.981069 0.7796751,0.927613 1.4518766,0.943089 4.0209872,0.09261 4.6759025,-1.547904 8.3068731,-1.603629 10.2921973,-0.157918 1.1426628,0.832077 1.7995316,0.808138 3.5288771,-0.1286 2.661167,-1.441481 7.27866,-1.336549 9.487504,0.21561 0.959174,0.674009 3.014227,0.891861 3.804388,0.403292 1.806636,-1.117064 2.52345,-1.377661 4.399549,-1.599421 2.224945,-0.262987 3.576035,0.0055 5.436662,1.080251 1.091332,0.630403 1.506145,0.632575 2.391553,0.01248 1.286431,-0.900904 3.056444,-1.443068 5.207154,-1.594969 2.233241,-0.157737 2.411624,-0.108849 5.416548,1.485654 0.850759,0.451431 1.069434,0.462467 2.592344,0.130868 0.914765,-0.199171 1.865165,-0.538787 2.112,-0.754691 0.718053,-0.628083 2.125901,-1.007134 3.778915,-1.017448 1.18435,-0.0074 2.030374,0.204477 3.702136,0.92709 2.771021,1.197775 3.729568,1.093762 8.767004,-0.951287 1.266502,-0.514162 3.070542,-0.319964 5.196867,0.559417 1.991877,0.823778 2.374609,0.82448 4.383094,0.0081 1.913876,-0.777926 6.559031,-1.318989 8.428659,-0.981767 0.675768,0.121886 1.730236,0.473564 2.343261,0.781505 1.230171,0.617947 2.664198,0.561109 4.746192,-0.188106 1.325673,-0.47704 2.745644,-0.51085 4.735669,-0.112748 1.347185,0.26951 1.812029,0.219408 5.039718,-0.543135 4.35258,-1.028306 8.61854,-1.513512 10.37254,-1.179749 0.69528,0.132295 2.8988,0.663357 4.89669,1.180142 3.94746,1.021061 5.1149,1.041988 7.91838,0.141949 1.15612,-0.371161 1.64996,-0.393692 3.20788,-0.146388 1.01275,0.160775 2.4829,0.586091 3.26696,0.945146 1.81491,0.831132 2.89382,0.823551 4.16523,-0.02899 0.90816,-0.609158 1.29727,-0.683658 3.90951,-0.748397 2.26839,-0.05625 3.04204,0.01862 3.54787,0.343351 0.3558,0.228394 1.10481,0.562218 1.66445,0.74183 0.95553,0.306664 1.11659,0.273168 2.64246,-0.549548 1.44339,-0.778251 1.86135,-0.87785 3.74152,-0.891621 1.77704,-0.01309 2.33875,0.09666 3.50127,0.683628 1.66558,0.840975 2.1309,0.858352 3.68705,0.137689 2.67689,-1.239686 6.25038,-1.198481 7.80113,0.08997 0.99404,0.825874 2.47907,0.87711 3.72965,0.128692 1.03264,-0.617984 4.79833,-0.998457 6.11139,-0.617492 0.46131,0.133845 1.68776,0.386438 2.72546,0.561317 1.6735,0.282034 1.98735,0.266276 2.77731,-0.139421 0.48982,-0.251571 1.78168,-0.761691 2.87079,-1.133603 2.79199,-0.953429 4.46459,-0.808662 7.41772,0.642002 2.60472,1.279503 3.26294,1.290057 6.21322,0.09956 1.5134,-0.610694 2.27801,-0.751767 4.22855,-0.780207 2.42181,-0.03531 3.5516,0.284976 4.34817,1.232675 0.57705,0.686563 2.53448,0.810992 3.52715,0.224217 0.4741,-0.280243 1.62353,-0.790204 2.55428,-1.133238 1.43121,-0.52749 2.06336,-0.608716 4.09784,-0.526548 1.73842,0.07026 2.65416,0.237835 3.30195,0.604421 2.36383,1.337707 2.14467,1.301774 3.86947,0.63436 0.87315,-0.337874 2.0631,-0.730336 2.64431,-0.872125 0.5812,-0.141799 1.59167,-0.395969 2.24548,-0.564821 0.65378,-0.168853 2.03629,-0.357032 3.07221,-0.418187 1.73234,-0.10221 2.51862,-0.01171 5.92545,0.683414 1.16845,0.238364 4.21926,1.681638 5.61226,2.655036 0.39956,0.279192 1.57894,0.60801 2.72775,0.760496 2.8966,0.384475 4.08262,0.871775 5.54101,2.276673 1.40877,1.357117 2.0445,2.35812 2.04993,3.227793 0.004,0.565389 -1.30234,3.039024 -2.50293,4.741178 -0.94136,1.334649 -0.83142,2.284032 0.39708,3.429169 0.56331,0.525076 1.3064,1.143712 1.65133,1.374744 0.57599,0.385784 0.63735,0.639986 0.75231,3.116477 0.17632,3.798644 -0.11126,4.457471 -2.99931,6.871597 -1.2492,1.044184 -2.78254,2.142753 -3.40741,2.441247 -1.46268,0.698729 -1.6838,1.163288 -1.67229,3.513372 0.0143,2.940768 -0.95594,4.702636 -3.96126,7.192365 -1.53443,1.271188 -3.64352,1.873989 -6.18955,1.769042 -1.54836,-0.06384 -2.20341,-0.246617 -3.758,-1.048664 -2.28209,-1.177394 -3.77648,-1.476446 -4.28387,-0.857258 -0.3055,0.372813 -0.1582,0.628749 1.12858,1.961076 1.53716,1.591541 2.00444,2.422081 2.98768,5.310293 0.57418,1.6866 0.61372,1.730705 2.29361,2.55938 0.94014,0.463763 1.85143,0.845035 2.02507,0.847281 0.17364,0.0019 1.09572,0.657487 2.04909,1.456104 1.40423,1.176302 1.76527,1.638788 1.90137,2.435575 0.0924,0.540954 0.29606,1.584903 0.45263,2.319901 0.25363,1.19086 0.20899,1.550116 -0.4099,3.299951 -0.38197,1.079985 -0.62824,2.220803 -0.54725,2.535154 0.081,0.314341 0.67985,1.10507 1.33078,1.757171 1.33246,1.334808 1.61544,2.242936 1.45511,4.669616 -0.0775,1.17333 -0.29219,1.83018 -0.87436,2.67512 -1.87308,2.71856 -1.81011,2.51346 -1.34459,4.37989 0.54533,2.18637 0.39129,2.79799 -1.57579,6.25732 -0.88589,1.55792 -1.60914,3.08592 -1.60721,3.39555 0.005,0.7688 -1.14043,1.86902 -1.95075,1.87407 -0.36497,0.002 -1.30483,0.24865 -2.08864,0.54748 -2.68746,1.02467 -7.34092,1.16883 -9.78272,0.30304 -0.78616,-0.27874 -1.0359,-0.21892 -2.75365,0.65961 -2.09865,1.07332 -3.63884,1.3193 -6.43553,1.02775 z m -32.97926,-6.8015 c 1.02544,-0.79231 2.09846,-2.42231 1.85272,-2.81442 -0.21674,-0.34585 -1.64333,-0.34066 -1.85506,0.007 -0.089,0.14608 -0.39296,0.26705 -0.6754,0.26881 -0.28246,0.002 -0.5129,0.10825 -0.5121,0.23665 8e-4,0.1284 -0.48482,0.72584 -1.07916,1.32764 -0.72665,0.73578 -1.02529,1.23571 -0.91171,1.52625 0.24521,0.62727 2.06292,0.312 3.18071,-0.55167 z m -66.35326,-3.56793 c 0.94596,-0.29912 1.04208,-1.37702 0.24764,-2.77703 -0.6472,-1.14051 -0.95965,-2.59874 -1.43513,-6.69795 -0.20627,-1.7783 -0.78249,-2.32708 -2.45677,-2.33973 -1.43643,-0.0108 -2.18041,0.51724 -2.17401,1.54318 0.01,1.57488 -0.50546,3.59716 -1.6753,6.57484 -0.64652,1.64563 -1.17363,3.15907 -1.17136,3.36319 0.002,0.20412 0.42178,0.65177 0.93226,0.99476 0.51048,0.34301 0.92868,0.70774 0.92932,0.81053 6.4e-4,0.10278 0.5539,0.74058 1.22947,1.41732 l 1.2283,1.23046 1.87602,-1.96594 c 1.03181,-1.08127 2.14312,-2.0504 2.46956,-2.15363 z m 63.32667,1.72132 c 0.78359,-0.5231 1.53043,-0.95175 1.65965,-0.95255 0.43971,-0.003 1.97506,-1.92296 1.83139,-2.29049 -0.0905,-0.23167 -0.55123,-0.36338 -1.25558,-0.35899 -0.92704,0.006 -1.20866,0.13865 -1.68901,0.79692 -0.31707,0.4345 -1.28659,1.29744 -2.15451,1.91765 -0.86792,0.62022 -1.57718,1.26298 -1.57615,1.42836 0.006,0.97071 1.23171,0.76251 3.18421,-0.5409 z m -110.43016,0.20983 c 1.087059,-1.22291 0.944232,-1.82798 -0.515707,-2.18474 -0.594635,-0.1453 -0.855116,-0.0235 -1.515483,0.70862 -0.836321,0.92721 -1.019967,1.68998 -0.46028,1.91177 0.844885,0.3348 1.983612,0.13569 2.49147,-0.43565 z m 87.58558,-0.64805 c 0.13762,-0.42887 -0.66977,-1.15103 -1.28258,-1.14721 -0.58272,0.004 -0.90016,0.58921 -0.65684,1.21165 0.18717,0.4788 1.78213,0.42581 1.93942,-0.0644 z m -114.839508,0.19239 c 0.246669,-0.655 -1.166569,-3.06969 -2.670382,-4.56266 -1.602063,-1.59051 -2.442184,-1.74954 -2.705868,-0.5122 -0.276959,1.29963 0.07746,2.40511 1.173309,3.65968 1.392885,1.59465 3.82673,2.41415 4.202941,1.41518 z m 118.732328,-1.14978 c 0.9373,-0.43413 0.87646,-1.46542 -0.15208,-2.57751 l -0.81543,-0.88167 -0.77292,0.74982 c -0.91862,0.89115 -0.98205,1.75379 -0.18301,2.48894 0.66985,0.61631 0.98964,0.65296 1.92344,0.22042 z m -95.37267,-0.15622 c 0.28922,-0.29286 0.525165,-0.64302 0.524322,-0.77815 -0.0024,-0.39263 -0.686284,-0.96176 -1.604613,-1.33545 -0.989923,-0.40282 -1.504486,-0.17792 -2.102225,0.91883 -0.368329,0.67583 -0.353893,0.7512 0.235421,1.2292 0.824355,0.66863 2.269429,0.65174 2.947095,-0.0344 z m 75.82082,-0.21381 c 2.16876,-0.38679 3.8027,-0.8074 4.73744,-1.21948 0.43537,-0.19194 1.53307,-0.65347 2.43934,-1.02563 2.57645,-1.05801 3.46589,-1.79523 5.13462,-4.25585 0.95242,-1.4044 0.93085,-2.41453 -0.0708,-3.31407 -0.43016,-0.38631 -1.19789,-1.07965 -1.70608,-1.54076 -1.02189,-0.92721 -1.76892,-2.890948 -2.0394,-5.360958 -0.14754,-1.347356 -0.20784,-1.451392 -0.82048,-1.415399 -0.36367,0.02137 -1.37365,0.352268 -2.2444,0.735338 -1.36966,0.602557 -1.96144,0.699711 -4.38767,0.720279 -3.06539,0.02613 -3.36759,-0.09527 -5.7591,-2.310853 -0.98291,-0.910605 -2.33919,-1.108237 -2.61315,-0.380773 -0.0882,0.234245 0.11476,1.247858 0.45106,2.252449 0.73033,2.181646 0.62736,3.032955 -0.56108,4.638557 -1.18889,1.60622 -2.77415,2.36107 -4.9444,2.35438 -0.94593,-0.003 -2.03537,-0.084 -2.42098,-0.18011 -1.02025,-0.25439 -1.13588,0.37754 -0.46001,2.51402 0.61942,1.95803 1.90262,3.71944 4.15659,5.70559 1.72914,1.52369 2.03078,1.66333 4.34346,2.01089 2.61131,0.39244 4.83698,0.41625 6.76501,0.0724 z m 37.04608,-1.21803 c 2.18317,-1.25586 2.60593,-1.80481 1.86041,-2.41572 -0.25076,-0.20548 -0.5247,-0.18726 -0.99179,0.066 -0.35494,0.19242 -1.15106,0.62193 -1.76915,0.95448 -1.29716,0.6979 -2.2044,1.74192 -1.99011,2.29012 0.2225,0.56918 0.48909,0.48665 2.89064,-0.89484 z m -133.125802,0.97019 c 0.526653,-0.76198 0.512441,-1.15883 -0.06193,-1.72952 -0.256254,-0.25461 -0.740026,-0.81715 -1.075048,-1.25009 -1.667918,-2.1554 -2.836907,-3.28685 -3.392328,-3.28339 -1.469951,0.009 -1.517071,2.13015 -0.07148,3.21786 1.949456,1.46686 2.379545,1.88929 2.789844,2.74019 0.50637,1.05013 1.213599,1.16922 1.810957,0.30495 z m 43.935482,-0.19383 c 2.212358,-0.61052 8.328412,-3.75776 9.585695,-4.93267 1.507396,-1.40863 2.371735,-5.2177 1.182289,-5.21028 -0.193605,0.001 -0.909956,0.30335 -1.591888,0.67141 -1.629728,0.87961 -3.464169,0.90182 -5.265967,0.0637 -2.552165,-1.18711 -3.323217,-2.54208 -3.344021,-5.876452 -0.01291,-2.06899 -0.129147,-2.284689 -1.67165,-3.101941 l -0.955076,-0.50601 -1.09631,0.783405 c -3.339603,2.386433 -3.650449,2.519265 -5.924564,2.531883 -1.170586,0.0065 -2.584107,-0.111699 -3.141158,-0.262646 -1.690374,-0.458053 -5.030029,-2.077168 -5.975776,-2.897153 -0.490118,-0.42495 -1.002717,-0.734658 -1.139106,-0.688246 -0.136389,0.04645 -0.279491,1.035784 -0.318005,2.198597 -0.05941,1.793815 -0.256131,2.584488 -1.298068,5.217403 -0.963045,2.43356 -1.168879,3.21211 -0.953868,3.60789 0.150796,0.2776 1.146618,1.25955 2.212941,2.18215 1.066322,0.92258 1.998704,1.74206 2.071958,1.82106 0.850855,0.91751 7.877018,4.37956 9.554559,4.70788 1.929752,0.37768 6.165885,0.21491 8.068015,-0.31001 z m -28.52013,-1.71832 c 0.614761,-0.59531 1.116269,-1.31937 1.114462,-1.60902 -0.0056,-0.89113 -0.518721,-1.54701 -1.207013,-1.54271 -1.294454,0.008 -3.217583,3.64882 -2.150712,4.0716 0.738917,0.29281 1.176061,0.11355 2.243263,-0.91987 z m 104.5222,-0.65714 c 0.10011,-0.91176 -0.91784,-2.57636 -1.69103,-2.7653 -1.85003,-0.45206 -2.20928,0.69719 -0.76278,2.44015 0.78063,0.94063 1.12729,1.16747 1.68079,1.09984 0.52845,-0.0646 0.71566,-0.25218 0.77302,-0.77469 z m 10.98712,-0.28324 c 2.01571,-1.04357 2.27277,-1.6985 0.88954,-2.26634 -1.12957,-0.46371 -2.10488,-0.2474 -2.96015,0.65653 -0.61807,0.65324 -0.65827,0.80878 -0.3699,1.43136 0.38972,0.84138 1.06469,0.89074 2.44051,0.17845 z M 57.016947,108.67831 c 1.551515,-1.51688 1.880091,-2.29897 1.233958,-2.93708 -0.568638,-0.56159 -1.028214,-0.33912 -2.640274,1.27806 -1.322052,1.32624 -1.556274,1.69636 -1.41661,2.23847 0.09203,0.35722 0.375943,0.70264 0.630914,0.76758 0.254973,0.0649 0.501421,0.13164 0.547663,0.14824 0.04624,0.0166 0.7862,-0.65628 1.644349,-1.49527 z m -9.894657,0.63791 c 1.152358,-0.89037 1.135681,-1.68725 -0.06273,-2.99723 -1.31026,-1.43224 -2.191337,-1.75066 -3.410171,-1.23244 -1.391038,0.59143 -1.272885,1.31458 0.537593,3.2903 0.818162,0.89284 1.615163,1.62254 1.771116,1.62157 0.155953,-9.7e-4 0.679838,-0.30796 1.164192,-0.6822 z m 124.44474,-0.47598 c 0.61723,-0.22712 0.9229,-0.50779 0.92079,-0.84553 -0.004,-0.67081 -2.26911,-1.162 -2.90265,-0.6295 -0.41225,0.3465 -0.54629,1.36631 -0.22172,1.68686 0.26237,0.25911 1.15758,0.17307 2.20358,-0.21183 z m -4.15764,-1.21264 c 0.19388,-0.76074 -0.0266,-1.2187 -0.66496,-1.3814 -0.99288,-0.25303 -1.70932,0.41101 -1.37264,1.27228 0.30096,0.76988 1.84809,0.85274 2.0376,0.10912 z M 54.718416,105.92022 c 0.216808,-0.52477 0.268055,-1.06597 0.133768,-1.41264 -0.17664,-0.45601 -0.07203,-0.64924 0.554801,-1.02482 0.872391,-0.5227 0.808739,-0.7818 -0.335174,-1.36432 -1.820326,-0.92699 -3.150131,0.21093 -1.640384,1.40368 0.515628,0.40736 0.626241,0.60261 0.342886,0.60527 -0.592114,0.006 -1.130591,1.15788 -0.921083,1.97109 0.268929,1.04389 1.405131,0.9353 1.865186,-0.17826 z m 117.616434,-1.23797 c -0.002,-0.2971 -0.35355,-0.88605 -0.78157,-1.30875 -1.26426,-1.24858 -2.40726,-0.89856 -2.39708,0.73408 0.006,0.94019 0.21752,1.14714 1.44094,1.40894 1.02102,0.21848 1.74212,-0.12772 1.73771,-0.83427 z m -121.711891,0.45833 c -0.01116,-0.85837 -0.327477,-1.2328 -1.262494,-1.49466 -0.602786,-0.16881 -0.953364,-0.12905 -1.303417,0.14783 -0.451835,0.3574 -0.426896,0.42307 0.44212,1.16421 1.129453,0.96326 2.135101,1.04973 2.123791,0.18262 z m 117.099191,-1.3239 c 0.5733,-0.88698 0.30586,-1.45918 -0.67913,-1.45304 -1.01157,0.006 -1.85203,1.10293 -1.32545,1.72942 0.51322,0.6106 1.5211,0.47164 2.00458,-0.27638 z m 7.13417,-0.15579 c -0.26007,-0.41499 -0.94248,-0.34741 -0.93973,0.0931 0.003,0.44487 0.57005,0.70129 0.89229,0.40335 0.12486,-0.11544 0.1462,-0.33881 0.0474,-0.4964 z m -10.91262,-0.64543 c 0.60882,-0.57298 0.94671,-1.09928 0.85553,-1.33253 -0.11524,-0.2948 -0.27166,-0.31982 -0.66468,-0.10632 -0.28267,0.15356 -0.74672,0.28066 -1.0312,0.28243 -0.66294,0.004 -1.53421,0.76624 -1.75181,1.53231 -0.15176,0.5343 -0.078,0.59507 0.70827,0.58376 0.63346,-0.009 1.15765,-0.27614 1.88389,-0.95965 z m 13.48282,-1.30784 c -0.0702,-0.94456 -2.48655,-4.417361 -3.07221,-4.415447 -0.55603,0.0015 -1.26563,0.989426 -1.26085,1.754841 0.002,0.314694 0.56308,1.243246 1.24695,2.063436 1.13818,1.36509 1.3236,1.48403 2.19163,1.40581 0.85183,-0.0767 0.94278,-0.15898 0.89448,-0.80864 z m -15.51397,-0.0396 c 2.49823,-1.748661 2.69895,-2.018814 2.03677,-2.741407 -0.63982,-0.698191 -1.73307,-0.631709 -3.36593,0.204665 -1.57032,0.804338 -1.76114,1.022582 -1.76057,2.013702 6.6e-4,1.38775 1.49338,1.64042 3.08973,0.52304 z m -110.829027,0.30785 c 0.344958,-0.3493 0.429351,-2.066468 0.101456,-2.064422 -0.439046,0.0027 -2.169537,1.376692 -2.16739,1.720832 0.0041,0.65432 1.51147,0.90501 2.065934,0.34359 z m 8.24975,-0.86709 c -9.7e-4,-0.1555 -0.731038,-0.97018 -1.622375,-1.81039 -1.363681,-1.285487 -1.700496,-1.484279 -2.12453,-1.253929 -1.129146,0.613397 -0.281302,2.124829 1.697932,3.026859 1.295369,0.59037 2.052509,0.60421 2.048973,0.0374 z m 121.194617,-0.69077 c 0.65272,-0.35458 0.64351,-0.927047 -0.0285,-1.770421 -0.29334,-0.368177 -0.53424,-0.810053 -0.53531,-0.981939 -0.004,-0.560339 -3.11788,-3.565477 -3.69139,-3.561898 -0.8628,0.0054 -1.17735,0.891623 -0.68024,1.916471 0.92164,1.900057 1.46312,2.752755 2.34679,3.695635 0.94482,1.008112 1.66551,1.203602 2.58858,0.702152 z M 110.2476,98.927617 c -0.2342,-1.402206 -1.01315,-2.271193 -1.66358,-1.855906 -0.84551,0.539855 -0.72689,2.073335 0.23377,3.022069 0.43025,0.42492 0.63511,0.46906 1.07295,0.23122 0.4635,-0.2518 0.51471,-0.452329 0.35686,-1.397383 z m -62.435684,1.276173 c 0.25823,-0.288938 0.683228,-0.594656 0.944438,-0.679357 0.615186,-0.199482 0.802163,-1.227469 0.552472,-3.037446 -0.139323,-1.00993 -0.327593,-1.474165 -0.619882,-1.528502 -0.593378,-0.1103 -3.217917,2.150759 -3.816252,3.287724 l -0.500593,0.951242 0.86889,0.769694 c 1.010852,0.895435 1.908326,0.978045 2.570927,0.236645 z m 68.040514,-0.288443 c 0.30203,-0.214378 0.6999,-0.760231 0.88415,-1.21302 0.2962,-0.727922 0.27332,-0.905153 -0.19769,-1.530686 -0.29299,-0.38909 -0.83512,-0.741934 -1.20475,-0.784089 -0.58875,-0.06713 -0.72397,0.07892 -1.09098,1.17844 -0.56229,1.684591 -0.52452,2.192095 0.18399,2.471758 0.80877,0.31924 0.80225,0.3198 1.42528,-0.122403 z m 43.55783,-0.745339 c 0.34327,-0.329568 0.99986,-0.918246 1.4591,-1.308169 0.45924,-0.389923 0.83342,-0.957819 0.83153,-1.261983 -0.003,-0.47849 -0.16283,-0.552034 -1.18575,-0.545652 -0.87939,0.0055 -1.14801,-0.08364 -1.04848,-0.347955 0.40949,-1.087376 -1.72272,-1.115584 -2.42304,-0.03208 -0.37016,0.572691 -0.26918,1.461698 0.16572,1.458984 0.1161,-7.24e-4 0.14865,0.487382 0.0724,1.08468 -0.20617,1.613423 0.91668,2.115687 2.12859,0.952148 z m 25.31609,-0.07445 c 0.60276,-1.143373 0.32472,-1.632968 -4.56293,-8.034617 -1.76334,-2.309543 -2.78032,-2.124795 -3.30781,0.600909 -0.13911,0.718832 0.0251,0.961813 1.73885,2.572462 1.04085,0.978255 2.34211,2.425764 2.89168,3.21668 0.54958,0.790917 1.11871,1.602052 1.26473,1.802525 0.39785,0.546163 1.65736,0.445453 1.97548,-0.157959 z M 62.084229,99.663181 c 0.183519,-0.487305 -1.991387,-3.8263 -2.902513,-4.456048 -0.446219,-0.308411 -0.585889,-0.29764 -0.99437,0.07671 -0.650507,0.59613 -0.615589,0.719505 0.525955,1.858395 0.549188,0.547914 1.334738,1.4406 1.745668,1.983747 0.805171,1.064235 1.357973,1.246955 1.625261,0.53721 z M 187.25527,96.284652 c 0.22314,-0.91319 -0.90996,-2.97859 -3.5799,-6.525361 -1.33871,-1.778362 -2.20986,-2.41532 -2.96738,-2.169678 -0.86482,0.280431 -0.63387,1.124086 0.74796,2.732366 0.7053,0.820866 1.48652,1.78888 1.73607,2.15113 1.42798,2.072931 1.73166,2.593607 2.02744,3.476058 0.17939,0.535202 0.46859,1.020037 0.64267,1.077432 0.60178,0.198389 1.24737,-0.145426 1.39314,-0.741947 z M 44.376714,96.147223 c 0.855212,-0.789322 2.008851,-1.8408 2.563645,-2.336631 l 1.008712,-0.901501 -0.454705,-1.116185 c -0.250092,-0.613901 -0.578344,-1.115413 -0.729455,-1.11447 -0.610057,0.0038 -3.812995,2.922427 -5.05334,4.604758 -0.638415,0.86592 -0.6997,1.096457 -0.44033,1.65643 0.483148,1.043095 1.358825,0.819658 3.105473,-0.792401 z m 63.015356,-0.09225 c 0.70415,-0.891491 0.61466,-1.474814 -0.39217,-2.556233 -1.13053,-1.21428 -1.97216,-1.368722 -2.58973,-0.475212 -0.64177,0.928532 -0.48589,1.667354 0.53933,2.556245 0.97881,0.848649 1.99191,1.045752 2.44257,0.4752 z m 11.41583,-0.954664 c 0.83003,-0.707323 1.08796,-1.823224 0.47062,-2.036086 -0.18229,-0.06286 -0.62819,-0.0021 -0.99088,0.134845 -1.39774,0.528061 -1.973,1.57199 -1.25629,2.279812 0.47705,0.471123 0.88026,0.385206 1.77655,-0.378571 z M 40.57428,94.087357 c 0.612135,-0.624062 2.028023,-1.972372 3.146416,-2.99625 2.091084,-1.914374 2.418878,-2.568702 1.523325,-3.040813 -0.427941,-0.225605 -0.811047,-0.04514 -2.256379,1.063118 -0.957508,0.734179 -1.852648,1.335565 -1.9892,1.336417 -0.333378,0.0021 -2.700632,1.836016 -2.961737,2.294494 -0.114032,0.200225 -0.07567,0.841078 0.08523,1.424126 0.387717,1.404908 1.015095,1.384153 2.452345,-0.0811 z m 52.186085,-0.811534 c 1.35013,-0.773119 2.079084,-1.815657 1.600205,-2.288608 -0.343829,-0.339562 -2.342268,-0.04199 -3.410182,0.507816 -1.272858,0.655295 -1.520005,0.946172 -1.306569,1.537762 0.477411,1.323227 1.139905,1.374895 3.116546,0.24303 z m 9.858005,-1.307321 c 0.0682,-0.72662 -0.0484,-0.881345 -1.03981,-1.379329 -1.14787,-0.57661 -2.326563,-0.551605 -3.060056,0.06489 -0.679021,0.570728 -0.338334,1.054192 1.270375,1.802739 1.940471,0.902931 2.711421,0.769878 2.829491,-0.488323 z m 29.56634,0.807816 c 0.60532,-0.993226 -1.10729,-2.359347 -2.9434,-2.347891 -0.86462,0.0054 -0.91672,0.05662 -0.91149,0.895844 0.005,0.779835 0.1288,0.939785 1.00027,1.290985 1.17766,0.474601 2.61414,0.55565 2.85462,0.161062 z m 36.68019,-2.135825 c 1.10447,-3.220934 0.98458,-6.286375 -0.24555,-6.2787 -0.54008,0.0034 -0.77473,-0.548227 -0.78579,-1.847213 -0.0102,-1.153699 -0.0347,-1.189357 -0.80367,-1.150699 -0.43643,0.02192 -1.03117,0.116496 -1.32163,0.21013 -0.77923,0.251187 -1.24542,-0.178273 -1.43809,-1.324793 -0.20445,-1.216618 -0.88105,-1.432851 -2.31695,-0.740469 -1.16478,0.561659 -1.5487,0.413161 -1.9409,-0.750745 -0.17235,-0.511494 -0.51472,-0.985057 -0.76082,-1.052373 -1.53089,-0.418757 -2.07732,-0.396697 -2.90276,0.117113 l -0.86592,0.539053 0.19134,2.340022 c 0.14492,1.77236 0.0837,2.838293 -0.2522,4.393999 -0.2629,1.217454 -0.34593,2.15037 -0.20388,2.290656 0.14204,0.140287 0.90304,-0.03774 1.86853,-0.437066 1.84622,-0.763644 4.05743,-0.901153 5.43002,-0.337686 1.57255,0.645562 4.17319,3.858748 4.18135,5.166213 0.005,0.871523 0.22158,1.106539 0.92143,1.0019 0.41323,-0.06178 0.70484,-0.562688 1.24549,-2.139382 z M 124.75528,92.1615 c 0.98851,-0.158251 1.58356,-0.742645 1.35404,-1.329784 -0.15047,-0.384909 -0.40814,-0.422212 -1.78229,-0.258055 -2.09776,0.250603 -2.87764,0.569635 -2.87386,1.175653 0.005,0.756605 0.31092,0.906488 1.4597,0.714537 0.58149,-0.09713 1.41057,-0.233206 1.84241,-0.302351 z m 62.97986,-0.515672 c 0.45035,-0.738964 -1.48876,-3.689773 -2.42089,-3.683957 -0.69108,0.0043 -0.39738,0.961158 0.7564,2.464188 1.17051,1.524807 1.38348,1.680871 1.66449,1.219769 z M 84.080867,91.880609 c 1.059779,-0.229067 3.492278,-2.166841 3.488458,-2.778969 -0.0018,-0.281205 -0.235609,-0.633803 -0.519675,-0.783563 -0.416875,-0.219764 -0.964281,-0.03388 -2.838313,0.963617 -3.30106,1.75713 -3.822184,2.299802 -2.643103,2.752354 0.570832,0.219103 0.875054,0.200525 2.512633,-0.153439 z m 56.839313,-1.158313 c 0.70286,-0.338922 0.89621,-0.591803 0.89261,-1.167492 -0.004,-0.619048 -0.18221,-0.803178 -1.13179,-1.168361 -0.61996,-0.238427 -1.63648,-0.788955 -2.25894,-1.22339 -1.31215,-0.915781 -2.27505,-0.920963 -2.39816,-0.01294 -0.0938,0.691559 0.82322,1.887931 2.41797,3.154716 1.24044,0.98533 1.28498,0.992842 2.47831,0.417415 z M 81.321903,89.265062 c 3.310669,-1.669919 3.854717,-1.991919 3.852918,-2.280364 -0.0023,-0.367233 -0.130951,-0.340679 -3.303101,0.681842 -1.597549,0.514957 -3.231631,1.005202 -3.631295,1.089437 -0.550414,0.116007 -0.725698,0.307664 -0.722688,0.790165 0.0036,0.573689 0.286457,0.792698 1.165665,0.902455 0.128786,0.0161 1.316111,-0.516512 2.638501,-1.183535 z M 41.094618,87.812598 c 0.701917,-0.52622 1.198956,-1.099242 1.153771,-1.330134 -0.170147,-0.869416 -2.688417,-0.480486 -3.034938,0.468724 -0.09399,0.257442 -0.390563,0.773602 -0.659069,1.147034 -0.2862,0.398034 -0.414787,0.866755 -0.310776,1.132832 0.201375,0.515143 0.410863,0.410914 2.851012,-1.418456 z m 75.965152,0.588262 c 0.45691,-0.897238 0.51186,-2.193106 0.12135,-2.861813 -0.14702,-0.251767 -0.38889,-0.793099 -0.53745,-1.20295 -0.36162,-0.997593 -1.05008,-0.833424 -1.7064,0.406895 -0.46996,0.888139 -0.48248,1.087301 -0.14951,2.379109 0.19987,0.775408 0.48262,1.557919 0.62834,1.738913 0.45999,0.571321 1.22789,0.356346 1.64367,-0.460154 z M 56.605551,87.992326 c 0.798365,-0.323187 2.284609,-0.654167 3.302768,-0.735511 1.725404,-0.137847 2.387908,-0.0338 5.098325,0.800837 0.773987,0.238325 0.778021,-0.25979 0.02383,-2.943126 -0.470906,-1.675425 -0.530521,-2.329466 -0.355786,-3.903406 0.243035,-2.189139 0.173468,-3.299417 -0.237351,-3.788193 -0.441452,-0.525206 -0.702559,-0.422355 -1.147899,0.45216 -0.223027,0.43796 -0.535554,0.797107 -0.694505,0.798099 -0.158948,9.92e-4 -0.698035,-0.352842 -1.197964,-0.786291 -0.499932,-0.433449 -1.138755,-0.78666 -1.419607,-0.784908 -0.594928,0.0037 -1.154489,0.912561 -0.974669,1.583082 0.0684,0.255068 0.01088,0.669605 -0.127871,0.921176 -0.208807,0.37865 -0.477267,0.427896 -1.558973,0.285992 -1.522195,-0.199687 -2.083015,0.121719 -2.07635,1.189968 0.0063,1.00832 -0.483969,1.526689 -1.769796,1.871248 -1.538468,0.412257 -1.811148,1.02355 -1.121172,2.513434 0.299399,0.646495 0.546201,1.469901 0.548446,1.829774 0.0079,1.261426 0.272535,1.54787 1.303191,1.410447 0.5246,-0.06997 1.607024,-0.391594 2.405388,-0.714782 z m 66.079939,-0.165977 c 0.64498,-0.398792 0.85544,-0.716571 0.85189,-1.28626 -0.005,-0.878303 -0.80315,-1.712842 -1.4103,-1.4755 -1.009,0.394423 -1.59169,2.305146 -0.90869,2.979688 0.4164,0.41124 0.45999,0.404768 1.4671,-0.217928 z m 10.53616,-1.232831 c 0.84432,-0.854924 0.893,-1.005791 0.87683,-2.717503 -0.018,-1.920965 -0.58273,-3.556824 -1.50541,-4.361863 -0.27673,-0.241448 -1.15959,-0.693968 -1.96191,-1.005609 -1.14121,-0.443278 -1.7659,-0.529242 -2.86958,-0.394903 -2.77381,0.337642 -3.43065,1.149716 -2.56904,3.17622 0.20374,0.479168 0.5294,1.729761 0.72369,2.779089 0.42823,2.312813 0.96474,2.798015 3.47283,3.140664 2.74624,0.375193 2.87386,0.354676 3.83259,-0.616095 z m 10.74051,-0.225766 c 0.6304,-1.314569 0.58654,-2.08766 -0.13336,-2.350804 -0.99497,-0.363689 -6.0058,-1.09438 -6.28877,-0.917051 -0.53385,0.334558 -0.23389,0.937728 0.78039,1.569192 0.57209,0.356167 1.12476,0.782577 1.22816,0.947586 0.10341,0.164998 0.74152,0.646746 1.41802,1.070543 1.58979,0.995931 2.40653,0.908823 2.99556,-0.319466 z m -39.74824,0.462705 c 0.29472,-0.320335 0.53595,-0.82786 0.53606,-1.127846 1.3e-4,-0.299997 0.0658,-0.795997 0.14596,-1.102223 0.20226,-0.772637 -0.56732,-1.511979 -1.21026,-1.162711 -0.64595,0.350907 -1.58676,2.014009 -1.58188,2.796334 0.004,0.611238 0.59079,1.160296 1.2538,1.17281 0.17626,0.0029 0.56161,-0.256039 0.85632,-0.576364 z m 7.04385,-0.12265 c 0.19167,-0.784371 -0.65223,-2.964738 -1.23244,-3.184263 -0.46559,-0.176148 -1.58243,1.021903 -1.57677,1.691431 0.002,0.246542 0.24212,0.833726 0.53343,1.304867 0.4078,0.659559 0.71196,0.855465 1.32222,0.851657 0.62357,-0.0039 0.82691,-0.145422 0.95356,-0.663692 z m -14.140092,-0.05367 c 0.399201,-0.185224 1.128575,-1.270436 2.04073,-3.036321 1.365192,-2.642939 1.403142,-2.772699 0.992112,-3.391566 -0.235069,-0.353911 -1.541663,-1.195355 -2.903549,-1.869861 -2.139613,-1.059701 -2.765542,-1.24599 -4.605351,-1.370673 -1.681226,-0.113933 -2.304226,-0.05242 -2.961119,0.292521 -2.891763,1.518331 -3.25142,6.322259 -0.621569,8.302319 1.865731,1.404737 6.122752,1.971848 8.058746,1.073581 z M 81.297201,85.703696 c 3.954162,-1.048441 3.659462,-1.349108 -1.292048,-1.318214 -4.147631,0.02588 -4.635617,0.113225 -4.631149,0.829331 0.0079,1.260335 0.242001,1.386217 2.197049,1.181245 1.014226,-0.10633 2.690993,-0.417898 3.726148,-0.692362 z m 38.846659,-2.927497 c 0.57062,-1.00877 0.57277,-1.773099 0.007,-2.390749 -0.60353,-0.658588 -1.06386,-0.601084 -1.82232,0.227614 -0.78199,0.854415 -0.80903,1.498747 -0.1039,2.476056 0.65275,0.904695 1.28943,0.800901 1.91947,-0.312922 z M 82.435486,82.608744 c 0.826133,-0.210738 0.740073,-0.847374 -0.138695,-1.026005 -0.400699,-0.0815 -1.88749,-0.500743 -3.303984,-0.931774 -1.416491,-0.43103 -2.684711,-0.715203 -2.81827,-0.631508 -0.326891,0.204863 -0.607085,1.838333 -0.404315,2.357048 0.08943,0.228757 0.420765,0.471994 0.736318,0.540547 0.663612,0.144152 5.049195,-0.08391 5.928946,-0.308308 z m 61.829054,-0.205176 c 0.83917,-0.325062 0.89598,-1.258234 0.12628,-2.074148 -0.45558,-0.482927 -0.83226,-0.573878 -2.33769,-0.564486 -1.97917,0.01235 -4.26606,0.67037 -4.26259,1.226499 0.003,0.486011 0.22504,0.589738 1.88193,0.879276 0.78786,0.137667 1.84989,0.361585 2.36007,0.497594 1.25739,0.335192 1.44987,0.338231 2.232,0.03527 z m -36.84889,-0.214527 c 0.63636,-0.583162 0.60359,-1.379573 -0.0866,-2.105141 -0.58645,-0.616503 -1.07572,-0.58465 -1.88933,0.12299 -0.60807,0.528875 -0.57831,1.254513 0.078,1.902711 0.64783,0.63979 1.25856,0.66535 1.89793,0.07946 z m 6.67324,-0.02224 c 0.46899,-1.245321 -0.38339,-3.547917 -1.31123,-3.542128 -0.40442,0.0025 -1.71606,1.485215 -1.71325,1.936667 0.001,0.163796 0.38485,0.688062 0.85295,1.165021 0.90804,0.925242 1.91225,1.128921 2.17153,0.44044 z m 59.72169,-1.208227 c 0.42704,-0.25587 0.84562,-0.764501 0.93017,-1.130306 0.21232,-0.918563 0.57874,-1.329217 1.18941,-1.333027 0.71121,-0.0044 0.45265,-0.612046 -0.28153,-0.661526 -1.1542,-0.0778 -1.27547,-0.581504 -0.36818,-1.529363 1.04001,-1.08649 1.05864,-1.651707 0.0711,-2.154635 -1.06266,-0.54115 -1.23147,-1.153109 -0.56861,-2.061463 0.75763,-1.038237 0.5742,-1.588363 -0.64052,-1.921021 -1.24198,-0.340117 -1.61496,-0.897131 -1.20833,-1.804546 0.42854,-0.956312 0.12902,-1.436623 -1.02052,-1.636474 -1.35093,-0.234866 -1.67092,-0.534216 -1.67737,-1.569216 -0.004,-0.629207 -0.24296,-1.107835 -0.85527,-1.712547 -0.80335,-0.793393 -0.9271,-0.829702 -2.26386,-0.664128 -1.5946,0.197513 -2.45276,-0.112239 -2.4576,-0.887044 -0.004,-0.704076 -1.16371,-1.412017 -1.9715,-1.203913 -0.99827,0.257184 -1.47001,0.904859 -1.46312,2.008818 0.004,0.572349 -0.16414,1.150256 -0.38853,1.33886 -0.51617,0.433849 -0.4953,1.099712 0.0646,2.061327 0.44308,0.761011 0.43726,0.798368 -0.25441,1.630869 -0.78414,0.943771 -0.92028,2.152484 -0.29973,2.660982 0.71702,0.587568 0.49686,1.754184 -0.47239,2.503076 -0.48435,0.37424 -1.00434,0.6812 -1.15553,0.682143 -0.30744,0.0019 -0.62007,0.949237 -0.38869,1.177758 0.33976,0.335537 1.22462,0.09762 1.95651,-0.526067 0.43007,-0.366491 0.90204,-0.667101 1.04881,-0.668017 0.14677,-9.16e-4 0.63838,0.412745 1.09247,0.919242 0.96314,1.074312 1.2043,1.113278 2.16297,0.349452 0.89427,-0.712504 1.84031,-0.38834 2.12212,0.727154 0.10388,0.411179 0.37368,1.029268 0.59957,1.373525 0.37577,0.572697 0.5326,0.610819 1.84435,0.448342 1.32245,-0.163794 1.45128,-0.131257 1.66084,0.419516 0.12538,0.329514 0.12547,0.872204 5.5e-4,1.21104 -0.3148,0.851491 -0.2968,0.94637 0.32837,1.731015 0.64963,0.815353 1.54712,0.889525 2.66426,0.220171 z M 50.20426,79.791455 c -0.0039,-0.617258 0.45806,-1.614139 0.875277,-1.888987 0.152637,-0.100555 0.594451,-0.121482 0.981808,-0.04653 1.093603,0.211641 2.232018,-0.540017 2.727375,-1.800792 0.459847,-1.170392 0.496958,-1.180043 2.44643,-0.636506 0.467983,0.130473 0.704546,-0.0445 1.254326,-0.927514 0.372664,-0.598577 0.82489,-1.091068 1.004947,-1.094421 1.200701,-0.02239 1.128973,-1.130636 -0.100346,-1.550604 -0.599905,-0.204931 -0.775216,-0.426692 -0.778699,-0.985001 -0.0049,-0.781815 0.650714,-1.692333 1.221076,-1.695891 0.554269,-0.0035 0.419557,-1.442356 -0.185678,-1.983261 -0.745187,-0.665973 -0.671991,-1.019567 0.379202,-1.831771 0.86108,-0.665315 0.905536,-0.775995 0.749281,-1.865451 -0.142218,-0.991552 -0.08559,-1.20915 0.393697,-1.512636 0.307896,-0.194965 0.558133,-0.623495 0.556081,-0.952288 -0.0037,-0.585339 -0.06591,-0.597411 -2.987508,-0.579182 -3.230156,0.02015 -4.046976,0.295906 -4.1992,1.417617 -0.07163,0.527807 -0.232679,0.594444 -1.45497,0.60207 -1.643888,0.01026 -2.029437,0.331338 -1.971963,1.642205 0.0506,1.154257 -0.461163,1.843183 -1.55259,2.090048 -0.726936,0.164428 -0.764812,0.243386 -0.756491,1.5771 0.0084,1.351414 -0.02674,1.421135 -0.939012,1.861035 -0.782423,0.377279 -0.916061,0.556476 -0.765996,1.027129 0.502801,1.576964 0.480011,1.79048 -0.27737,2.598511 l -0.756532,0.807126 0.607348,0.434369 c 1.69977,1.215639 1.722707,1.243426 1.532306,1.856566 -0.10291,0.331399 -0.532304,0.725285 -0.954212,0.875331 -0.421905,0.150035 -0.766286,0.403529 -0.76529,0.563315 9.97e-4,0.159787 0.570513,0.794106 1.265591,1.409602 1.394918,1.235191 2.456742,1.490271 2.451117,0.588808 z m 60.05016,-0.339869 c 0.39428,-0.747895 0.32075,-2.285176 -0.12683,-2.651951 -0.21239,-0.174048 -0.62952,-0.237527 -0.92694,-0.141079 -0.62847,0.203795 -0.70453,1.089777 -0.20895,2.433991 0.36309,0.984864 0.85853,1.125725 1.26272,0.359039 z m 88.00608,-0.698788 c 0.96425,-0.369824 2.0922,-0.674527 2.50657,-0.677113 0.51744,-0.0032 1.16908,-0.378541 2.08057,-1.198294 0.72993,-0.656477 1.71159,-1.394726 2.18144,-1.640542 0.46987,-0.245827 1.00607,-0.6648 1.19159,-0.931073 0.18551,-0.266272 0.81535,-0.630619 1.39964,-0.809658 1.46826,-0.4499 1.74076,-1.065402 0.99707,-2.252105 -0.562,-0.896771 -0.56879,-0.97581 -0.15884,-1.849465 0.61354,-1.307553 0.53887,-1.639064 -0.50613,-2.246876 -0.99085,-0.576309 -1.13301,-1.081132 -0.6242,-2.216548 0.37185,-0.829797 0.009,-1.171361 -1.2491,-1.17636 -1.22624,-0.0048 -1.41102,-0.252511 -1.37577,-1.843802 0.0313,-1.413253 0.0106,-1.457515 -0.71928,-1.536462 -0.4513,-0.04879 -0.95857,0.108452 -1.26981,0.39369 -0.64919,0.594902 -1.29934,0.262002 -1.59505,-0.816704 -0.23085,-0.842106 -0.63885,-1.178957 -1.42922,-1.179986 -0.29541,-1.57e-4 -0.93276,-0.414959 -1.41634,-0.921271 -0.91383,-0.956817 -1.56528,-1.141146 -2.10423,-0.595423 -0.36317,0.367723 -0.41222,1.313687 -0.0871,1.680676 0.12178,0.137483 0.43823,0.975285 0.70321,1.861769 0.52506,1.756568 0.37438,2.474872 -0.63407,3.022705 -0.67003,0.363987 -0.65615,0.746228 0.0542,1.492991 0.47312,0.497347 0.51426,0.671224 0.23849,1.007771 -0.18331,0.223698 -0.58659,0.410118 -0.89617,0.41428 -0.30959,0.0039 -0.73765,0.119624 -0.95127,0.25659 -0.32765,0.210078 -0.28913,0.353371 0.24627,0.916201 0.62933,0.661566 0.6308,0.675888 0.17483,1.704092 -0.57327,1.292762 -0.35135,2.476111 0.5769,3.076071 0.54977,0.355347 0.64561,0.577803 0.51996,1.206859 -0.0848,0.424167 -0.22166,1.105835 -0.30426,1.514818 -0.10198,0.504926 -0.0149,0.854489 0.27138,1.089058 0.57495,0.471142 0.533,1.058045 -0.12645,1.768823 -0.56925,0.613574 -0.48532,1.164171 0.17684,1.16004 0.20636,-0.0013 1.16414,-0.304929 2.12838,-0.674753 z M 83.001587,79.273477 c -0.01835,-0.578907 -0.648875,-1.186604 -1.866343,-1.79876 -0.650619,-0.327127 -1.453523,-0.797787 -1.78423,-1.045909 -0.712634,-0.534654 -1.518818,-0.380581 -2.05306,0.392367 -0.722323,1.045077 -0.489188,1.384859 1.276497,1.860412 0.911053,0.245381 1.954726,0.542715 2.319271,0.660743 1.03758,0.335953 2.119571,0.300611 2.107865,-0.06885 z m 58.214993,-0.462522 c 1.52745,-0.08843 2.81634,-0.200425 2.86421,-0.248815 0.1906,-0.192693 -0.54866,-1.21262 -1.17,-1.614222 -0.57315,-0.370451 -0.87184,-0.383117 -2.28094,-0.09675 -2.20429,0.447971 -4.44345,1.479102 -4.43992,2.044581 0.002,0.376573 0.17822,0.417356 1.12613,0.261149 0.61784,-0.101857 2.37307,-0.257491 3.90052,-0.345943 z M 32.947266,78.55336 c 0.681843,-0.171897 1.595338,-0.564554 2.029987,-0.872572 0.71691,-0.508053 1.099991,-0.555274 4.12664,-0.508617 3.916856,0.06036 4.227582,-0.08778 3.545913,-1.691096 -0.711874,-1.674301 -0.627473,-1.912212 1.242527,-3.502601 0.879598,-0.748072 0.890125,-1.496982 0.03141,-2.234269 -0.879202,-0.754869 -0.843502,-1.373254 0.11939,-2.067985 0.434615,-0.313578 0.788773,-0.800157 0.787019,-1.081282 -0.0026,-0.422041 -0.199221,-0.513157 -1.127762,-0.522724 -0.618515,-0.0063 -1.363276,-0.103526 -1.655025,-0.215918 -0.368184,-0.141835 -0.901859,0.0057 -1.744593,0.482174 l -1.214139,0.686509 -0.85688,-0.711928 c -0.471283,-0.391567 -1.003581,-0.711022 -1.18288,-0.709903 -0.608196,0.0038 -1.205237,0.665382 -1.560829,1.729562 -0.334835,1.002058 -0.418656,1.065022 -1.519412,1.141352 -0.96615,0.06703 -1.305868,0.246082 -1.990082,1.049127 -0.707785,0.830712 -0.973074,0.96347 -1.866485,0.934043 -0.835402,-0.02749 -1.186889,0.119428 -1.776683,0.74279 -0.664404,0.702199 -0.71682,0.894979 -0.543958,2.000612 0.209867,1.342347 -0.09142,1.986029 -0.932045,1.991274 -0.704012,0.0044 -0.612657,0.764818 0.124939,1.039991 0.339167,0.126536 0.819301,0.535159 1.066967,0.908051 0.52044,0.783578 2.156726,1.706587 3.045761,1.71806 0.335774,0.0039 1.168375,-0.132752 1.85022,-0.30465 z M 191.2235,77.07149 c 1.21421,-0.629018 1.29379,-1.010842 0.37511,-1.799616 -0.85322,-0.73257 -0.84166,-1.185521 0.0517,-2.024281 0.87395,-0.820569 0.64471,-1.3831 -0.74589,-1.830342 -0.91427,-0.294032 -0.91877,-0.303234 -0.83976,-1.713594 l 0.0795,-1.417974 -1.43252,0.188062 c -1.15401,0.151503 -1.50275,0.104478 -1.79369,-0.241634 -0.28448,-0.338451 -0.29499,-0.53715 -0.0495,-0.935739 0.17141,-0.278325 0.30974,-0.813878 0.30739,-1.190121 -0.004,-0.674867 -0.0239,-0.681504 -1.45904,-0.493086 l -1.45476,0.19099 -0.42888,-1.020104 c -0.77583,-1.845375 -1.7285,-2.370282 -3.02431,-1.666343 -0.74814,0.406415 -1.25733,0.07005 -1.51674,-1.001837 -0.66257,-2.737699 -2.98884,0.07225 -2.96693,3.583831 0.009,1.447132 0.60241,2.47036 1.42961,2.465199 0.61998,-0.0039 1.31547,0.982131 1.15484,1.637196 -0.49178,2.005418 -0.49609,1.969084 0.34593,2.916109 0.97651,1.098289 1.01587,1.4694 0.25921,2.44379 -1.02843,1.324362 -0.52857,1.570599 3.52276,1.735345 1.94979,0.07934 3.96253,0.262912 4.47278,0.408041 1.47263,0.418881 2.589,0.348554 3.71332,-0.233892 z M 85.909359,77.49215 c -0.0017,-0.272304 -2.990597,-2.663373 -3.947024,-3.157555 -0.805082,-0.415985 -1.894492,-0.139303 -1.890627,0.480165 0.0021,0.329234 0.736532,0.848172 2.405785,1.699773 2.301615,1.174203 3.435108,1.497097 3.431866,0.977617 z m 50.716801,-0.702594 c 1.13312,-0.352456 2.47626,-0.751764 2.98474,-0.887369 1.28495,-0.342664 1.41041,-1.245364 0.22918,-1.648892 -0.46718,-0.159599 -1.15108,-0.288294 -1.51979,-0.285994 -0.98799,0.0062 -5.28828,2.196128 -5.30381,2.701024 -0.03,0.974437 0.77926,1.001618 3.60968,0.121231 z m -11.42452,-0.512 c 3.15067,-1.339574 4.88777,-5.137156 3.88765,-8.499021 -0.24115,-0.810642 -0.7767,-1.84751 -1.1901,-2.30416 -0.72166,-0.797133 -0.82902,-0.828314 -2.69088,-0.781586 -3.98742,0.10008 -6.84064,2.472818 -7.88595,6.557959 -0.46137,1.803044 -0.46198,1.92645 -0.014,2.828052 0.36495,0.734407 0.90535,1.163144 2.44555,1.9402 1.78215,0.899118 2.1062,0.978888 3.28666,0.809019 0.72028,-0.103695 1.69275,-0.351358 2.16104,-0.550463 z m 94.9516,-0.54483 c 0.4856,-0.206463 0.96858,-0.515953 1.07328,-0.687749 0.26712,-0.438306 -0.79857,-1.484857 -2.52448,-2.479158 -1.93514,-1.114838 -2.21313,-1.743246 -2.33901,-5.287679 -0.1059,-2.979968 -0.29425,-3.512333 -1.46064,-4.127228 -0.53163,-0.280268 -3.03225,0.758574 -3.26775,1.357535 -0.0953,0.242329 0.15753,0.64555 0.66098,1.054226 0.99374,0.806676 1.03555,1.54961 0.14738,2.618612 -0.59028,0.710456 -0.65401,0.983889 -0.53376,2.290275 0.15786,1.715168 0.57245,2.444656 1.96715,3.461304 0.55122,0.401798 1.39537,1.059314 1.87589,1.461144 0.70135,0.586506 1.13446,0.728986 2.19585,0.722364 0.72721,-0.0045 1.7195,-0.177182 2.20511,-0.383646 z m -115.53327,0.311898 c 1.13093,-0.955495 0.70557,-3.251186 -1.44733,-7.811262 -0.93567,-1.981851 -3.12342,-4.356738 -4.469858,-4.852206 -1.012877,-0.372728 -2.637975,-0.335948 -3.133487,0.07095 -1.418989,1.165106 -1.944142,2.644732 -1.814959,5.113674 0.09583,1.831497 3.774781,5.530736 7.226214,7.266055 1.6941,0.851777 2.80618,0.91681 3.63942,0.212838 z M 88.750051,75.467237 c 0.05769,-0.425268 -0.230404,-0.642444 -1.462114,-1.102189 -0.843673,-0.314902 -1.861859,-0.648886 -2.262631,-0.742177 -1.22785,-0.285825 -0.875597,0.545124 0.671352,1.583682 1.592599,1.069204 2.928251,1.183233 3.053393,0.260684 z m 43.040929,-1.187412 c 0.0866,-0.142113 0.65048,-0.394446 1.25305,-0.560739 1.65593,-0.456991 3.77379,-2.262059 4.40466,-3.754114 0.69772,-1.650206 0.67226,-1.81737 -0.27592,-1.811454 -2.51771,0.01571 -6.31986,3.489628 -6.30569,5.761324 0.004,0.630128 0.61515,0.871589 0.9239,0.364983 z M 14.030943,74.113016 c 0.906523,-0.623478 3.572128,-1.18346 4.100532,-0.861431 0.141903,0.08652 0.560659,0.0793 0.930566,-0.01601 0.917621,-0.23641 0.858794,-1.017998 -0.130984,-1.740266 -1.082553,-0.789962 -1.046837,-1.644561 0.11511,-2.754192 1.12803,-1.077249 1.160126,-1.763973 0.116714,-2.497187 -1.062149,-0.746368 -1.058205,-1.64261 0.01073,-2.439585 0.776874,-0.579218 0.807174,-0.671599 0.633014,-1.930137 -0.303399,-2.192499 -0.244938,-2.596932 0.464761,-3.215132 0.369409,-0.321781 0.74177,-0.872005 0.827468,-1.222706 0.249018,-1.019044 -0.472203,-1.400231 -2.464294,-1.302471 -0.938626,0.04606 -2.10384,-0.05707 -2.589364,-0.229249 -1.099266,-0.389769 -1.580667,-0.06014 -1.816918,1.244001 -0.202346,1.117024 -0.715645,1.436423 -2.037092,1.267564 -0.966792,-0.12354 -1.022625,-0.08992 -1.177301,0.709369 -0.178192,0.9208 -0.957489,1.618806 -1.8133124,1.624145 -0.7952374,0.005 -1.1814816,0.514602 -1.175019,1.550402 0.00312,0.49941 -0.2545157,1.334934 -0.5725156,1.856728 -0.3179972,0.521784 -0.6544042,1.631795 -0.7475689,2.466692 -0.1193003,1.069095 -0.4465484,1.967295 -1.1066401,3.037384 -0.5154856,0.835662 -0.8857906,1.601508 -0.8228989,1.701857 0.062891,0.10036 1.2004517,0.246035 2.5279138,0.323724 2.7504331,0.160963 3.3758681,0.455407 4.2597871,2.005402 0.702974,1.232698 1.171098,1.312599 2.467309,0.421104 z m 53.899176,-0.306192 c 0.526959,-0.328324 1.712305,-1.178126 2.634102,-1.888451 0.9218,-0.710325 1.972893,-1.414317 2.335766,-1.564434 0.362872,-0.150107 0.851154,-0.371158 1.085068,-0.491219 0.233917,-0.120072 1.155131,-0.366625 2.047142,-0.547903 1.877745,-0.381613 1.931926,-0.528214 1.141595,-3.089173 -0.348946,-1.130715 -0.478806,-2.465811 -0.496367,-5.103143 l -0.02389,-3.5718 -0.656381,0.0041 c -0.45513,0.0028 -0.761916,0.227858 -1.000569,0.733867 -0.425899,0.903025 -0.708279,0.919497 -1.269793,0.07402 -0.635777,-0.957242 -1.38467,-0.840667 -1.847856,0.287635 -0.46295,1.12772 -1.012371,1.401113 -1.65736,0.824686 -0.643428,-0.575036 -1.619096,-0.548798 -1.648784,0.04429 -0.09303,1.858777 -0.04595,1.780112 -1.152562,1.925459 -1.056816,0.138806 -1.057434,0.13958 -0.970934,1.225112 0.08086,1.014755 0.02921,1.108049 -0.784917,1.418114 -0.47931,0.182544 -1.140447,0.440024 -1.469194,0.572188 -0.328747,0.132164 -0.729987,0.535455 -0.891646,0.896201 -0.25792,0.57557 -0.191399,0.771219 0.54304,1.597253 1.010426,1.136427 1.027697,1.315263 0.181333,1.877405 -0.401002,0.266337 -0.657184,0.686973 -0.654763,1.075086 0.0027,0.436621 0.212942,0.715525 0.666992,0.884916 0.364658,0.136047 0.664019,0.408135 0.665245,0.604651 0.0012,0.196516 -0.293678,0.638785 -0.65534,0.982818 -0.770547,0.733002 -0.795697,0.885771 -0.236718,1.437815 0.646894,0.638876 2.942494,0.522001 4.116685,-0.209579 z M 113.109,73.488439 c 0.66596,-0.610286 1.7396,-4.036852 2.11668,-6.755457 0.42652,-3.075101 0.15754,-9.318465 -0.4368,-10.138742 -0.23979,-0.330951 -0.85475,-1.189131 -1.36658,-1.907061 -1.08689,-1.524549 -1.77553,-1.962871 -3.09124,-1.967562 -2.46776,-0.0088 -3.80727,2.793169 -4.0658,8.504803 -0.24615,5.438352 0.94255,10.512254 2.85029,12.166303 0.83588,0.724729 1.07437,0.797903 2.2185,0.680762 0.70507,-0.0722 1.5038,-0.334559 1.77495,-0.583046 z m 42.63177,-0.1651 c 0.41569,-0.420891 0.47175,-0.649245 0.25665,-1.045211 -0.15138,-0.278671 -0.39411,-0.579112 -0.53941,-0.667658 -0.59143,-0.360447 -0.23529,-1.203995 0.78361,-1.856135 1.27098,-0.813465 1.34532,-1.481262 0.25055,-2.250557 -0.8756,-0.615289 -1.06032,-1.567615 -0.41008,-2.114152 0.58789,-0.494138 0.47469,-1.042362 -0.27283,-1.321244 -0.78428,-0.292592 -0.81218,-0.488522 -0.21897,-1.537234 0.55314,-0.97787 0.19623,-1.539914 -1.13047,-1.780241 -0.82973,-0.150306 -0.87175,-0.210295 -0.73991,-1.056054 0.17158,-1.100762 -0.40858,-1.435469 -1.37527,-0.793415 -1.32854,0.882386 -2.35308,0.281807 -2.07624,-1.21708 0.16001,-0.866265 -0.53733,-2.048647 -1.19861,-2.032341 -0.25127,0.0066 -0.68688,0.187509 -0.96801,0.402917 -0.71017,0.544152 -1.37098,0.493784 -2.02742,-0.154513 -0.81892,-0.808767 -1.12453,-0.29048 -0.63344,1.074243 0.2329,0.647209 0.41469,2.032422 0.42208,3.216169 0.0109,1.746416 -0.15649,2.578737 -1.04554,5.198874 -1.47266,4.340093 -1.45431,4.210836 -0.62634,4.413154 0.38439,0.0939 0.80598,0.103684 0.93684,0.02166 0.42024,-0.263368 3.80186,0.378566 5.01338,0.951689 0.64516,0.3052 1.76369,1.126108 2.48563,1.824247 1.45016,1.402339 2.25764,1.589795 3.1138,0.722866 z M 89.984253,72.140562 c 0.258657,-0.424412 -0.399667,-1.044266 -1.1044,-1.039869 -0.728834,0.0045 -0.801397,0.322046 -0.207624,0.908453 0.481189,0.475227 1.066749,0.533875 1.312024,0.131416 z M 24.104202,70.624409 c 0.198362,-0.526717 -0.381574,-1.822234 -0.758927,-1.695347 -0.369031,0.124074 -0.572092,1.10231 -0.347882,1.675873 0.185491,0.474502 0.930511,0.487614 1.106809,0.01949 z m 65.851637,-1.889956 c -0.0032,-0.51148 -0.37651,-0.856427 -1.862858,-1.72127 -2.438364,-1.418775 -2.627523,-1.477056 -3.283294,-1.011615 -0.717585,0.509327 -0.731573,1.913371 -0.02786,2.796608 0.484077,0.607562 0.672143,0.648049 2.848153,0.613232 2.281384,-0.03654 2.32977,-0.05054 2.325861,-0.676955 z M 27.482794,67.939398 c 0.63171,-0.268587 1.048481,-0.690996 1.309778,-1.327508 0.365032,-0.889195 0.424108,-0.922124 1.243012,-0.692779 1.00815,0.282335 1.560629,-0.04794 1.555128,-0.929671 -0.002,-0.320614 0.27635,-0.849271 0.618554,-1.174802 0.604532,-0.575073 0.648885,-0.57934 1.562543,-0.150632 1.152355,0.540721 1.720882,0.34999 2.078685,-0.697393 0.340132,-0.995641 1.342027,-1.330019 2.060692,-0.68775 0.29127,0.260308 0.80933,0.407348 1.248346,0.354308 0.675576,-0.08162 0.745312,-0.183023 0.698946,-1.0164 -0.131249,-2.358977 -0.453721,-3.725242 -0.939717,-3.981455 -0.588438,-0.310205 -0.64464,-1.091839 -0.137208,-1.908231 0.798192,-1.284165 0.760013,-1.717335 -0.238244,-2.703216 -1.155045,-1.140716 -1.181693,-1.510267 -0.161966,-2.246003 0.837878,-0.60454 0.983369,-1.303721 0.520129,-2.499614 -0.335749,-0.866772 -1.864894,-0.997974 -1.859663,-0.15956 0.0084,1.344573 -0.465113,1.592662 -2.000604,1.048232 -0.778342,-0.275969 -0.934218,-0.236806 -1.718991,0.431943 -0.782803,0.667068 -0.992134,0.720125 -2.251796,0.570721 -1.217524,-0.144417 -1.423235,-0.09933 -1.668323,0.365556 -0.153756,0.291655 -0.27771,0.826029 -0.275455,1.187482 0.0069,1.100848 -0.266166,1.473979 -1.213021,1.65773 -1.044122,0.202629 -1.417817,0.753841 -1.409548,2.079135 0.0052,0.828014 -0.11789,1.002145 -1.049091,1.484554 -0.951222,0.492785 -1.054328,0.645351 -1.048673,1.551743 0.0046,0.742486 -0.165673,1.156617 -0.651585,1.584467 -0.794323,0.699399 -0.835216,1.395078 -0.1196,2.034625 0.644283,0.575792 0.706903,1.889947 0.12984,2.724853 -0.377194,0.545734 -0.372237,0.700757 0.05775,1.805915 0.81344,2.090726 1.344288,2.278367 3.660086,1.29375 z M 133.78559,67.151451 c 0.63213,-0.275649 1.8285,-0.941626 2.65859,-1.479956 1.26857,-0.822701 1.50849,-1.101323 1.50446,-1.74717 -0.0139,-2.229337 -1.09923,-2.704915 -2.84833,-1.248113 -1.25639,1.046429 -3.31256,4.092837 -3.11081,4.608958 0.18918,0.483929 0.41884,0.466836 1.79609,-0.133719 z m 99.73536,-2.177598 c 2.10299,-0.724524 2.15981,-0.76716 2.75562,-2.067762 0.86755,-1.89377 0.80857,-2.898122 -0.2048,-3.488251 -0.7762,-0.451986 -0.80153,-0.523199 -0.64782,-1.819133 0.20053,-1.690714 -0.30984,-2.358323 -1.63232,-2.135237 -1.21431,0.20484 -1.9977,-0.392544 -1.807,-1.378013 0.17138,-0.885477 -0.31949,-1.135989 -2.28764,-1.16752 -1.02628,-0.0164 -1.2347,-0.118729 -1.54798,-0.759816 -0.28342,-0.579983 -0.51466,-0.722153 -1.06499,-0.654829 -0.95444,0.116758 -0.9983,0.703453 -0.17987,2.405909 1.28875,2.680812 0.66185,5.236113 -1.84958,7.539027 -1.12365,1.030361 -1.20653,1.189381 -0.96738,1.856112 0.36336,1.012962 2.05417,1.85869 4.25182,2.126723 2.79692,0.341127 2.88799,0.333088 5.18194,-0.45721 z m -42.00075,-0.0038 c 0.0927,-0.433837 0.48489,-0.919923 0.96948,-1.201542 0.78941,-0.458774 0.80835,-0.514423 0.63212,-1.85678 -0.13584,-1.034723 -0.0818,-1.517769 0.21435,-1.914765 0.56906,-0.762925 0.49613,-1.880742 -0.16226,-2.486486 -0.42617,-0.392108 -0.52612,-0.704761 -0.40424,-1.264582 0.43044,-1.977154 0.40325,-2.716279 -0.10984,-2.986783 -0.27716,-0.146114 -0.85047,-0.263489 -1.27403,-0.260846 -1.08875,0.0068 -1.69859,-0.741477 -1.48862,-1.826518 0.1915,-0.989544 -0.14482,-1.327922 -1.31889,-1.326977 -1.14578,0.0011 -1.73197,-0.440483 -1.92827,-1.451968 -0.19303,-0.994665 -1.4301,-2.23537 -2.22387,-2.230418 -0.25732,0.0016 -0.68186,0.242379 -0.94343,0.535067 -0.55996,0.626556 -1.66868,0.698595 -2.3959,0.155651 -0.2838,-0.211883 -0.84117,-0.387009 -1.23861,-0.389149 -1.03725,-0.0056 -1.26985,1.079223 -0.4625,2.157087 0.42961,0.573571 0.54716,0.988506 0.42421,1.497463 -0.44227,1.830895 -0.42379,2.033423 0.2692,2.950307 l 0.69664,0.921712 -0.73669,0.606488 c -0.40519,0.333575 -0.89145,0.734546 -1.0806,0.891049 -0.1895,0.156796 -0.30515,0.659447 -0.2576,1.119539 0.0842,0.814891 0.11813,0.83478 1.40919,0.826724 1.24095,-0.0077 1.35116,0.04747 1.77917,0.891707 0.59805,1.179572 0.88515,1.331793 2.50184,1.326537 1.50612,-0.0044 1.79944,0.216337 2.09281,1.578523 0.31025,1.440652 0.56641,1.616167 2.05643,1.409047 1.53883,-0.213915 1.77876,0.0042 1.79501,1.631732 0.006,0.594196 0.0906,1.159217 0.18828,1.25563 0.39206,0.387191 0.8495,0.131332 0.99665,-0.557449 z M 90.555529,65.335456 c 0.362007,-0.701453 -0.06122,-1.475117 -1.340108,-2.449667 -0.634524,-0.48353 -1.366659,-1.091294 -1.626973,-1.350585 -1.111807,-1.107455 -2.520306,-0.822452 -3.111149,0.629523 -0.333184,0.818785 -0.313124,0.875341 0.569047,1.604571 0.502923,0.41572 1.570402,0.93883 2.372177,1.162472 0.801775,0.223632 1.571541,0.511775 1.710591,0.64032 0.41614,0.384701 1.170322,0.259583 1.426415,-0.236634 z m -97.5924924,0.01359 c 0.2892204,-0.292861 0.5249819,-0.672409 0.5239147,-0.843456 -0.00107,-0.171036 -0.4540424,-1.21003 -1.0066119,-2.308864 -1.1560863,-2.298982 -1.2954561,-3.776121 -0.5101454,-5.406882 0.5659327,-1.175204 2.57182,-2.610287 4.3246613,-3.094023 l 1.1202649,-0.309165 -0.1401872,-2.432503 c -0.1836467,-3.186636 -0.6558481,-4.516236 -1.6431425,-4.626648 -1.1615417,-0.129896 -1.9260734,0.1724 -3.0603642,1.210087 -1.0225284,0.935448 -1.0869756,0.955651 -2.1012424,0.658653 -0.8686539,-0.254365 -1.1815199,-0.235433 -1.8422029,0.111496 -0.700348,0.367717 -0.794982,0.556021 -0.78866,1.569271 0.0092,1.474232 -0.422839,1.855295 -1.841982,1.624624 -1.460133,-0.237324 -1.888539,0.157186 -1.801407,1.658892 0.07228,1.245903 -0.232239,1.649741 -1.254382,1.663479 -1.261939,0.01687 -1.697709,1.97359 -0.653511,2.934304 0.317121,0.291767 0.577004,0.597602 0.577515,0.67963 5.12e-4,0.082 -0.315699,0.720714 -0.70269,1.419332 -0.67028,1.210005 -0.682832,1.301495 -0.264894,1.93075 0.695236,1.046763 4.665512,3.02952 7.162755,3.57709 2.8436225,0.62352 3.2724198,0.621755 3.9023098,-0.01635 z M 133.4491,61.863248 c 2.04925,-2.050036 2.42616,-2.782852 1.76645,-3.434378 -0.514,-0.507633 -1.66407,-0.357625 -2.23708,0.291773 -1.10964,1.257558 -3.01664,4.481849 -2.87106,4.854268 0.3269,0.836236 1.28569,0.345135 3.34169,-1.711663 z m -11.37826,1.223595 c 0.78315,-0.411195 2.35851,-3.213678 2.35245,-4.184899 -0.005,-0.785465 -0.75304,-0.822298 -1.79792,-0.08848 -1.22698,0.861682 -2.74631,4.046053 -2.11772,4.438559 0.50861,0.317593 0.67781,0.299717 1.56319,-0.165156 z M 47.662989,61.837881 c 0.106992,-1.649149 0.365472,-1.870496 2.106531,-1.803888 1.621632,0.06208 1.440947,0.246295 2.08902,-2.130165 0.278889,-1.02268 1.397905,-1.147744 2.010937,-0.224751 0.545116,0.820735 1.545743,0.878503 2.283176,0.131817 0.980905,-0.993229 0.487342,-2.686052 -1.155,-3.96141 -0.87957,-0.683036 -0.901959,-1.043323 -0.147495,-2.373366 0.537342,-0.947271 0.549563,-1.0648 0.15688,-1.508629 -1.094092,-1.236607 -1.110929,-1.60446 -0.119385,-2.608455 1.071448,-1.084897 1.230444,-2.19254 0.389109,-2.710701 -0.948094,-0.583906 -0.666947,-1.275064 0.675203,-1.659895 0.666911,-0.191215 1.24363,-0.478178 1.281598,-0.637698 0.03797,-0.15952 0.21763,-0.759413 0.399247,-1.333097 0.309994,-0.979184 0.291814,-1.073752 -0.296895,-1.544408 -0.861122,-0.688441 -2.207833,-0.431943 -3.216407,0.61261 -0.429591,0.444919 -0.909374,0.809739 -1.066184,0.810717 -0.156808,9.79e-4 -0.744862,-0.312598 -1.306784,-0.69685 l -1.021676,-0.698619 -0.713378,0.537171 c -0.392358,0.295454 -0.748294,0.844335 -0.790971,1.219759 -0.103058,0.906561 -0.668055,1.340774 -1.705109,1.310424 -1.792919,-0.05251 -2.303963,0.535005 -1.611935,1.853023 0.582923,1.110215 0.339316,1.544773 -0.870213,1.55232 -1.143248,0.0071 -2.180174,0.619774 -2.175542,1.285368 0.0017,0.246404 0.302781,0.792087 0.669037,1.21262 0.366256,0.420543 0.666776,0.901937 0.667823,1.069764 0.003,0.479541 -0.601902,1.195389 -1.315392,1.556677 -0.902272,0.456878 -0.945853,1.109393 -0.137458,2.058038 0.795098,0.933037 0.833423,1.221134 0.300477,2.258739 -0.588315,1.145423 -0.487575,1.42647 0.671531,1.873457 0.583498,0.225014 1.061479,0.500977 1.06218,0.613255 7e-4,0.112277 -0.29417,0.559736 -0.655267,0.994357 -0.76293,0.918258 -0.806439,1.370218 -0.23642,2.455863 0.538979,1.026517 1.902508,1.846366 2.908539,1.748807 0.738083,-0.07161 0.798639,-0.159446 0.870223,-1.262854 z m 71.698871,-1.058892 c 0.76287,-2.230453 1.40031,-5.897981 1.18814,-6.835996 -0.36004,-1.591814 -1.36723,-0.659502 -2.04325,1.891325 -0.39899,1.505569 -0.77294,6.435548 -0.50799,6.69721 0.37392,0.369284 0.84419,-0.235341 1.3631,-1.752539 z m 54.52002,0.687874 c 0.26406,-0.559878 0.29059,-0.988092 0.0991,-1.598549 -0.387,-1.233479 -0.0165,-1.998716 0.97204,-2.004884 1.15863,-0.0072 1.26016,-0.630004 0.28205,-1.730083 -0.45518,-0.51195 -0.82858,-1.086812 -0.82977,-1.277468 -0.003,-0.442681 0.74704,-1.112082 1.51296,-1.350716 0.97403,-0.303483 0.64402,-1.459956 -0.61487,-2.154705 -0.81924,-0.452118 -0.76574,-1.032923 0.17822,-1.93433 l 0.86899,-0.829818 -1.03638,-0.865831 -1.03638,-0.86584 0.4603,-0.712156 c 0.5617,-0.869042 0.36161,-1.509396 -0.47002,-1.504207 -0.34054,0.0021 -0.84045,-0.155829 -1.11091,-0.351016 -0.42886,-0.30951 -0.45695,-0.495578 -0.21968,-1.455397 0.33434,-1.352533 0.10077,-1.546399 -1.29599,-1.075745 -1.28431,0.432761 -1.68285,0.133122 -1.69162,-1.271861 -0.006,-0.946891 -0.036,-0.977444 -0.93196,-0.946343 -0.50923,0.01768 -1.30987,0.196876 -1.7792,0.398228 -0.83185,0.356867 -0.87657,0.341046 -1.77576,-0.628423 -0.76692,-0.826871 -1.06965,-0.979435 -1.79591,-0.905093 -0.8362,0.08562 -0.87056,0.133155 -0.80505,1.114025 0.0511,0.765216 -0.0967,1.223427 -0.58404,1.809919 -0.35885,0.431917 -0.65192,0.872474 -0.65126,0.979012 0.003,0.54506 0.8247,1.170648 1.72083,1.310739 1.41094,0.220582 1.68904,0.765827 1.08515,2.127601 -0.69354,1.563998 -0.62251,2.535044 0.23411,3.200262 1.01119,0.785236 0.91236,1.457646 -0.30711,2.089387 -1.109,0.57452 -1.34955,0.966109 -1.34194,2.184655 0.004,0.679937 0.15665,0.851879 1.06585,1.202493 0.89084,0.343529 1.06167,0.529557 1.0656,1.160474 0.003,0.464821 -0.19633,0.878642 -0.52241,1.085121 -0.52562,0.332836 -0.72501,1.001473 -0.29783,0.998808 0.1238,-7.73e-4 0.5987,-0.134258 1.05534,-0.296651 0.78916,-0.280639 0.88909,-0.235451 2.01972,0.913457 1.01813,1.034588 1.34024,1.207771 2.23602,1.202182 1.49714,-0.0093 1.82001,0.178438 2.1778,1.266597 0.60328,1.834742 1.40524,2.112994 2.06404,0.716156 z M 91.896027,61.6461 c -0.0062,-0.99228 -1.217733,-2.914869 -2.129383,-3.37912 -0.473158,-0.240943 -1.07821,-0.326469 -1.578632,-0.223135 -1.174292,0.242491 -1.059565,1.075262 0.326839,2.372407 2.187924,2.047069 3.389,2.483934 3.381176,1.229848 z M 129.0064,60.126713 c 1.99228,-2.396147 1.95823,-2.917955 -0.1888,-2.893559 -1.84061,0.02049 -2.01454,0.195513 -2.51632,2.525989 -0.3353,1.557253 -0.32647,1.68639 0.13812,2.021678 0.27295,0.196991 0.6199,0.317079 0.771,0.266865 0.15109,-0.05024 0.95929,-0.914653 1.796,-1.920973 z m 81.72302,0.159379 c 0.51744,-0.500708 1.10378,-0.800652 1.5708,-0.803566 0.83196,-0.0052 1.28914,-0.621135 1.28224,-1.727533 -0.009,-1.493321 1.03192,-3.232532 2.892,-4.830568 0.99174,-0.852034 2.07603,-1.748017 2.40954,-1.991082 l 0.60637,-0.441932 -0.76048,-0.791381 c -0.68941,-0.717423 -0.7455,-0.911026 -0.60023,-2.071685 0.19884,-1.588562 -0.53081,-2.995837 -1.54999,-2.989478 -0.86145,0.0054 -1.17808,-0.449778 -1.28642,-1.84928 l -0.0917,-1.184891 -1.40834,-0.07181 c -1.2911,-0.06585 -1.43138,-0.136582 -1.68486,-0.849404 -0.25083,-0.705319 -0.38708,-0.776871 -1.46654,-0.770136 -0.76456,0.0048 -1.45598,-0.179459 -1.93389,-0.515294 -0.40913,-0.287493 -1.02448,-0.551548 -1.36745,-0.586789 -0.94259,-0.09685 -1.00643,1.172482 -0.0982,1.95229 0.90127,0.773822 0.86387,1.124222 -0.24313,2.278392 -0.51958,0.541712 -0.86529,1.13207 -0.78428,1.339299 0.60754,1.55417 0.56138,1.66059 -1.3748,3.169979 -0.52179,0.406774 -0.61625,0.75336 -0.68072,2.497806 -0.0411,1.114018 -0.14485,2.140355 -0.23042,2.280752 -0.0855,0.140396 -0.66284,0.326522 -1.28282,0.413622 -1.25024,0.175644 -2.0539,0.933493 -2.04768,1.930963 0.006,0.897333 0.38224,0.993085 1.50452,0.382541 1.51509,-0.824249 2.44847,-0.384164 2.47398,1.166477 0.0241,1.466558 0.80115,1.896068 2.40818,1.331161 1.45288,-0.510725 1.92939,-0.06394 1.69238,1.586661 -0.28629,1.993916 0.64032,2.510924 2.05197,1.14491 z m -110.37516,0.754764 c -0.004,-0.109119 -0.33437,-0.689367 -0.735657,-1.289435 -0.401286,-0.600068 -0.934737,-1.459957 -1.185449,-1.910871 -0.504618,-0.907569 -1.543691,-1.145031 -1.531889,-0.350089 0.01384,0.936132 0.76874,2.570364 1.457431,3.155318 0.665456,0.565209 2.008884,0.831183 1.995564,0.395077 z m 142.26115,-2.292455 c 0.31688,-0.64817 0.83488,-2.040069 1.15108,-3.093113 0.5547,-1.847156 0.5628,-2.054381 0.22978,-5.880048 -0.1964,-2.256478 -0.52421,-4.386524 -0.76062,-4.94256 -0.59386,-1.396682 -2.95278,-4.77435 -3.55673,-5.092748 -0.61481,-0.324111 -1.78447,-0.347343 -1.97228,-0.0392 -0.31067,0.509739 0.56969,2.294431 1.63086,3.30615 0.72605,0.692213 1.14514,1.325711 1.15592,1.747302 0.009,0.363749 0.19315,0.891382 0.40856,1.172513 0.21541,0.281142 0.39446,0.960508 0.39789,1.509697 0.005,0.732216 0.21945,1.238335 0.8056,1.897601 0.94784,1.066047 0.98144,1.305802 0.25165,1.796935 -0.57358,0.386026 -0.66128,1.040216 -0.34137,2.546039 0.12049,0.567119 0.0616,1.009246 -0.17234,1.294781 -0.39475,0.481732 -0.98009,2.540514 -0.99226,3.490048 -0.0104,0.808391 0.48342,1.690627 0.87592,1.564986 0.17172,-0.05497 0.57147,-0.630258 0.88834,-1.278417 z M 95.189057,59.954692 c 0.08697,-0.142706 0.04288,-0.707992 -0.09798,-1.256184 -0.140863,-0.548191 -0.32455,-1.29515 -0.40819,-1.659905 -0.185553,-0.809198 -1.568719,-1.673885 -2.298836,-1.437135 -0.693143,0.224769 -1.130847,1.095407 -0.93428,1.858395 0.166902,0.647841 2.645492,2.760138 3.234465,2.756463 0.190681,-0.0012 0.41785,-0.118929 0.504824,-0.261634 z m 8.288963,-1.004336 c 0.12696,-1.593473 -0.48047,-3.743785 -1.10233,-3.902269 -1.47587,-0.376129 -1.57777,0.825811 -0.30918,3.64663 0.77196,1.716507 1.28768,1.809912 1.41151,0.255639 z m 56.13737,-0.47165 c 0.53724,-1.165894 0.575,-1.446925 0.29607,-2.20348 -0.45473,-1.233427 -0.41581,-1.447564 0.44332,-2.438453 0.94675,-1.091959 0.81919,-1.825317 -0.44541,-2.560861 -1.23833,-0.720258 -1.15867,-1.730765 0.17216,-2.183757 0.63831,-0.217277 0.95014,-0.499948 1.0083,-0.914049 0.0914,-0.650472 -0.78797,-1.754327 -1.59782,-2.00581 -0.82378,-0.255815 -1.12438,-1.108646 -0.64965,-1.843132 0.88271,-1.365704 0.29464,-2.506997 -1.28671,-2.497131 -0.87753,0.0055 -0.99457,-0.245439 -0.67236,-1.441443 0.40534,-1.504558 -0.0697,-1.740199 -1.13623,-0.563542 -0.48023,0.529857 -0.96933,0.963967 -1.08691,0.9647 -0.11756,7.34e-4 -0.39047,-0.414291 -0.60645,-0.922274 -0.48219,-1.134073 -1.03783,-1.181708 -1.40051,-0.120074 -0.40349,1.1811 -0.99825,1.278173 -1.89444,0.309186 -0.4198,-0.4539 -0.83433,-0.824821 -0.92118,-0.824279 -0.0869,5.42e-4 -0.48613,0.246818 -0.88726,0.547286 -0.81432,0.609943 -1.41746,0.484904 -2.75013,-0.570142 -0.62032,-0.491089 -0.8713,-0.538074 -1.72184,-0.322344 -0.85037,0.2157 -1.00644,0.370007 -1.06942,1.057343 -0.0593,0.646693 0.19048,1.102943 1.27129,2.322614 0.73977,0.8348 1.34574,1.631125 1.3466,1.769593 8.7e-4,0.138477 -0.23528,0.457146 -0.52476,0.708157 -0.78106,0.677247 -0.66404,1.821639 0.28178,2.755736 0.93146,0.919906 1.01223,1.596596 0.27919,2.338844 -0.28922,0.29285 -0.52372,0.875764 -0.5211,1.295346 0.004,0.598248 0.14398,0.788607 0.64987,0.882053 0.76512,0.141319 0.93773,0.03625 1.55526,-0.947082 0.35616,-0.567114 0.63983,-0.727857 1.18037,-0.668838 0.63227,0.06906 0.72137,0.202873 0.7999,1.201633 0.0983,1.250461 0.26519,1.320181 1.93515,0.808472 1.30835,-0.400901 1.82495,-0.01939 1.83351,1.352836 0.008,1.350064 0.83346,1.887267 2.72552,1.77469 l 1.38616,-0.08245 -0.0451,0.794046 c -0.0248,0.436734 -0.12127,1.1697 -0.21447,1.62883 -0.13146,0.647703 -0.0442,0.958465 0.38937,1.386668 0.84074,0.830321 1.20161,0.678726 1.87785,-0.788852 z M 5.8035725,57.592956 c 0.077325,-0.303408 0.4351473,-0.598396 0.8308682,-0.684967 2.2651485,-0.495532 2.6570096,-0.820743 3.4274593,-2.8445 0.270589,-0.710762 0.331276,-0.729681 2.380762,-0.742468 1.985662,-0.01239 2.1333,-0.05391 2.644036,-0.744121 0.297516,-0.402044 0.660398,-0.875547 0.806404,-1.052222 0.393229,-0.475823 0.318046,-1.256499 -0.20911,-2.171267 -0.445808,-0.773614 -0.446292,-0.851243 -0.01017,-1.630359 0.53973,-0.964206 0.56629,-1.666245 0.124068,-3.279288 -0.320072,-1.167475 -0.310577,-1.203995 0.529144,-2.035291 1.189785,-1.177836 1.04866,-1.92447 -0.381932,-2.020646 -0.811481,-0.05454 -1.191004,0.06053 -1.559443,0.472759 -0.617346,0.690775 -1.584922,0.701802 -2.452668,0.0279 -1.168485,-0.907387 -1.90517,-0.593115 -2.9897786,1.275448 -0.381712,0.657615 -0.6830885,0.864179 -1.2661766,0.867817 -0.4208751,0.0026 -0.9145572,-0.172897 -1.0970732,-0.390043 -0.852538,-1.0143 -1.7944602,-0.0759 -1.450446,1.445048 0.2163719,0.956609 -0.087512,1.164939 -1.9717545,1.351699 -1.3411027,0.13293 -1.4603768,0.199455 -1.5319094,0.854464 -0.055246,0.505865 0.08445,0.795719 0.4853686,1.007081 0.8280332,0.436523 0.5778084,1.337521 -0.5824375,2.097215 -1.20457111,0.788711 -1.23554633,1.237823 -0.1472424,2.13492 0.8044327,0.663094 0.8240157,0.725993 0.5195042,1.668382 l -0.3164418,0.979313 1.8183437,1.969633 c 1.0000903,1.083292 1.9188015,1.971137 2.0415795,1.972991 0.1227803,0.0022 0.2843491,-0.236439 0.3590472,-0.529551 z M 66.680884,57.4277 c 0.173532,-0.175717 0.313098,-0.706458 0.310147,-1.179438 -0.0069,-1.107929 0.64326,-1.524064 1.507964,-0.965168 0.341606,0.220793 0.964239,0.439223 1.38363,0.485407 0.41939,0.04618 0.922282,0.116308 1.117535,0.155841 0.243963,0.04938 0.378454,-0.284527 0.429964,-1.067514 0.0907,-1.378712 0.685143,-1.751659 1.400913,-0.878907 0.536286,0.653896 1.524464,0.661191 1.811398,0.0134 0.09696,-0.218889 0.549883,-1.136043 1.006512,-2.038119 0.933344,-1.843819 0.998963,-2.264337 0.426534,-2.733415 -0.730669,-0.598743 -0.481343,-1.602328 0.639435,-2.573849 1.346298,-1.167013 1.884875,-2.747984 1.193242,-3.502713 -0.731858,-0.79862 -0.443069,-1.486575 0.59203,-1.410322 0.688898,0.0507 1.127343,-0.166246 2.165775,-1.071873 0.716106,-0.62452 1.300839,-1.333262 1.299402,-1.574978 -0.0034,-0.57205 -1.487149,-1.800216 -2.169698,-1.795958 -0.716377,0.0045 -3.067588,2.551309 -3.163576,3.426785 -0.109184,0.995821 -1.256452,0.980918 -1.745176,-0.02261 -0.418825,-0.860044 -0.862421,-0.915507 -1.511692,-0.189012 -0.636193,0.711863 -1.347976,0.676234 -1.858923,-0.09306 -0.58739,-0.884382 -1.403471,-1.020173 -2.395343,-0.398582 -1.152839,0.722476 -1.615496,0.661372 -2.108997,-0.278537 -0.550684,-1.048815 -1.663408,-0.999602 -2.165577,0.09581 -1.080982,2.35794 -0.877661,2.178058 -2.635383,2.331598 -2.089904,0.182553 -2.351741,0.439591 -1.738013,1.706197 0.546204,1.127244 0.367775,1.611017 -0.844549,2.289814 -0.903247,0.505745 -1.101963,1.472664 -0.605468,2.946095 0.282731,0.839062 0.264808,1.125329 -0.122369,1.954561 -0.397573,0.851497 -0.408887,1.086882 -0.09157,1.905189 0.352379,0.908749 0.666614,1.196444 1.622217,1.485217 0.502994,0.151995 0.655654,1.333405 0.208509,1.613621 -0.444309,0.278447 -0.286578,1.14753 0.237818,1.310371 0.272352,0.0846 0.815554,0.02971 1.207111,-0.121993 0.98868,-0.382976 1.809446,-0.350427 2.700177,0.107075 0.921679,0.473399 1.476815,0.493655 1.896026,0.06917 z M 240.12602,55.850056 c 0.88604,-0.705952 0.90027,-1.767562 0.0434,-3.241304 -0.42634,-0.733284 -0.61369,-1.411198 -0.56047,-2.028033 0.11732,-1.358978 -0.30433,-2.181103 -1.42058,-2.76986 -0.87509,-0.461569 -1.00083,-0.653439 -1.07891,-1.646401 -0.0511,-0.649324 -0.22162,-1.122649 -0.40388,-1.120872 -0.17353,0.0017 -0.9061,0.30734 -1.62793,0.67922 -1.19788,0.617136 -1.55969,0.671255 -4.14602,0.62008 l -2.83356,-0.05602 -0.94822,0.927964 c -1.05574,1.033187 -1.44851,2.067718 -0.9097,2.396083 0.45969,0.280157 1.5886,-0.176745 2.03598,-0.824009 0.53246,-0.770387 1.07228,-0.637443 1.70508,0.41994 0.63671,1.063908 1.37375,1.425416 2.88685,1.415976 0.94132,-0.0059 1.08344,0.08654 1.51169,0.982777 0.42184,0.882846 0.60069,1.003422 1.66276,1.120988 1.63375,0.18084 1.85245,0.374409 1.86507,1.650796 0.0115,1.204661 0.18781,1.607969 0.80117,1.837087 0.62746,0.234379 0.68407,0.219816 1.41728,-0.36437 z M 104.91924,55.323763 c 0.27138,-1.038533 0.16763,-1.894853 -0.32832,-2.709984 -0.26462,-0.434918 -0.89189,-1.835061 -1.39392,-3.111424 -0.9428,-2.397014 -1.36742,-3.003087 -1.87925,-2.682327 -0.68535,0.429504 0.47756,6.004257 1.55211,7.440521 0.34496,0.461087 0.62794,0.955421 0.62884,1.098528 0.002,0.266695 0.43149,0.508168 0.96473,0.541971 0.16499,0.01047 0.37011,-0.249324 0.45581,-0.577285 z m -125.997327,0.256963 c 0.786658,-0.64469 1.269589,-1.657293 1.263401,-2.649084 -0.0065,-1.045469 0.171176,-1.278143 1.82683,-2.392024 0.501527,-0.337416 1.242713,-1.090205 1.64708,-1.672869 0.798247,-1.150213 0.827411,-1.898849 0.174051,-4.467893 -0.258008,-1.0145 -0.260791,-1.504032 -0.01297,-2.271153 0.681315,-2.108522 -0.22904,-2.609872 -2.660186,-1.465031 -2.707887,1.275169 -4.199305,3.267493 -4.862509,6.495644 -0.608519,2.961974 -0.231787,7.225267 0.740715,8.382292 0.393216,0.467825 1.337106,0.487927 1.883532,0.04015 z M 118.51749,52.70632 c 1.299,-3.515943 1.56784,-4.740884 1.28164,-5.83963 -0.55705,-2.138536 -1.97353,-1.806842 -2.53343,0.593238 -1.01872,4.366841 -1.05021,4.98377 -0.29251,5.732067 0.6421,0.634136 1.19479,0.460325 1.5443,-0.485675 z M 81.384427,51.972856 c 1.232042,-0.923095 1.871112,-1.211938 4.182186,-1.890251 2.503431,-0.734763 3.491033,-0.841257 5.378351,-0.579957 2.386166,0.330368 2.464341,0.242579 2.445692,-2.746353 -0.01715,-2.748056 0.594924,-5.352666 1.54552,-6.576791 0.471333,-0.606952 0.437521,-1.520329 -0.06768,-1.828223 -0.142419,-0.08681 -0.595709,0.215551 -1.007308,0.671888 -0.862879,0.956642 -1.435187,1.031684 -2.368965,0.310626 -0.365571,-0.282294 -0.990508,-0.51388 -1.38875,-0.514635 -0.579852,-0.0014 -0.799994,0.183575 -1.105215,0.927074 -0.429587,1.04645 -0.385003,1.024532 -1.350811,0.66421 -0.891802,-0.332712 -1.438245,0.06227 -1.437844,1.039262 5.06e-4,1.315202 -0.974835,1.905869 -2.025636,1.226692 -0.353336,-0.22838 -0.903041,-0.376483 -1.221569,-0.329115 -0.510333,0.07589 -0.593601,0.287309 -0.700867,1.779617 -0.127337,1.771549 -0.276623,1.980585 -1.621873,2.271054 -0.88539,0.191168 -1.20905,1.076424 -0.626121,1.71252 0.69621,0.759731 0.52277,1.503687 -0.492159,2.111071 -1.029155,0.615913 -1.191668,1.385322 -0.498786,2.361528 0.459961,0.648043 0.799549,0.560303 2.361833,-0.610217 z M 23.831899,52.73817 c 0.148881,-0.282404 0.267725,-0.989029 0.264099,-1.570278 -0.0086,-1.372713 0.520767,-1.891656 1.938538,-1.900502 1.33744,-0.0083 1.751589,-0.361265 1.744568,-1.486644 -0.0073,-1.168527 0.442845,-1.453041 2.019295,-1.276293 1.552902,0.174095 2.248413,-0.125231 2.903048,-1.249397 0.484577,-0.83214 1.082235,-0.990422 1.970854,-0.521957 0.806743,0.425305 2.059434,0.01165 3.073219,-1.014904 0.704159,-0.712997 1.042985,-0.882094 1.478539,-0.737869 0.310768,0.102913 1.207284,0.238562 1.992255,0.301456 l 1.427219,0.114338 -0.149631,-1.256981 c -0.0823,-0.69135 -0.03276,-1.599127 0.110103,-2.017287 0.388223,-1.136424 -0.09439,-1.540801 -1.825998,-1.529997 -1.697121,0.01059 -2.829742,0.446594 -4.104541,1.58004 -1.026247,0.912461 -1.826575,1.035266 -3.175019,0.487179 -1.140528,-0.463573 -3.364976,-1.212429 -4.12083,-1.387277 -1.018776,-0.235658 -2.120444,0.442979 -2.956787,1.821404 -0.929028,1.531186 -1.759927,1.726634 -2.585409,0.608162 -0.397327,-0.538351 -0.660566,-0.659631 -1.155157,-0.532213 -1.006385,0.259274 -1.747919,1.131068 -1.933566,2.273238 -0.0938,0.577137 -0.410827,1.269518 -0.704493,1.538636 -0.727423,0.666611 -1.265459,1.78227 -1.260274,2.613284 0.0036,0.578288 0.239198,0.794993 1.463638,1.346344 1.809364,0.814747 1.84807,1.05553 0.327469,2.037167 -0.562619,0.363207 -0.719809,0.648863 -0.654054,1.188613 0.07084,0.58152 0.254859,0.739165 1.0136,0.868343 1.861934,0.31699 2.616535,0.23979 2.899315,-0.296605 z M 198.35899,51.958542 c 0.43166,-0.292149 0.89153,-1.280678 0.88762,-1.908036 -0.002,-0.333993 0.26026,-0.674367 0.66387,-0.861318 0.47355,-0.219339 0.74971,-0.64512 0.95106,-1.466363 0.21165,-0.863247 0.48392,-1.262374 1.0717,-1.570987 0.70849,-0.371997 0.77193,-0.508746 0.629,-1.356011 -0.12607,-0.747348 -0.03,-1.097584 0.46474,-1.692962 0.74684,-0.898887 0.61561,-1.758415 -0.30274,-1.98282 -0.35079,-0.08571 -0.75933,-0.37953 -0.90783,-0.652919 -0.29979,-0.55186 -1.07214,-0.638313 -1.86324,-0.208549 -0.37304,0.202652 -0.77697,0.190242 -1.43812,-0.04413 -0.73701,-0.261317 -1.10099,-0.259026 -1.83497,0.01158 -0.82333,0.303533 -0.99497,0.279623 -1.70333,-0.237287 -0.66684,-0.486599 -0.99285,-0.546316 -2.12403,-0.389075 -1.28776,0.179008 -1.37746,0.148377 -2.47067,-0.843762 -1.43791,-1.304964 -3.2871,-1.98237 -4.0477,-1.482785 -0.31623,0.207707 -0.52521,0.63683 -0.52249,1.072901 0.004,0.596379 0.17098,0.780139 0.93245,1.024412 l 0.92792,0.297657 -0.0782,1.777582 -0.0782,1.777583 0.95267,0.554107 c 0.86189,0.501302 0.95335,0.664165 0.95987,1.709264 0.008,1.249046 0.39187,1.625957 1.97929,1.942349 0.58389,0.116379 0.92706,0.447505 1.3782,1.329807 0.78371,1.53272 1.5332,2.104565 2.74839,2.096983 0.79555,-0.005 1.04568,0.121528 1.29204,0.653412 0.29938,0.646344 0.95688,0.839126 1.53272,0.449416 z m -91.54452,-0.994768 c 0.16203,-0.663074 -0.46292,-3.914628 -1.02163,-5.31539 -0.13299,-0.333446 -0.24374,-0.809015 -0.24609,-1.056815 -0.002,-0.24781 -0.13129,-0.897068 -0.28652,-1.4428 -0.2572,-0.904193 -0.34492,-0.976087 -0.98859,-0.810268 -0.84772,0.218403 -1.62365,1.091091 -1.61868,1.820545 0.002,0.291033 0.36182,1.4199 0.79964,2.508599 0.43782,1.08869 0.79708,2.076428 0.79836,2.194972 10e-4,0.118534 0.25876,0.801551 0.5722,1.517809 0.45241,1.033848 0.69847,1.301488 1.1937,1.298398 0.45614,-0.0028 0.67054,-0.195047 0.79761,-0.71505 z m 8.29873,-0.730792 c 0.27906,-0.655504 1.25403,-4.613934 1.46113,-5.932231 0.0717,-0.456837 -0.009,-1.087387 -0.17951,-1.401228 -0.26673,-0.490995 -0.50147,-0.558352 -1.68212,-0.482664 l -1.37213,0.08796 -0.0499,3.800755 c -0.0338,2.577271 0.0489,3.918221 0.25684,4.165668 0.46615,0.554623 1.28092,0.430627 1.56568,-0.238273 z m 14.89421,-0.337344 c 1.76765,-0.963477 6.10818,-1.080361 8.11693,-0.218597 1.99908,0.857624 2.44134,0.992458 3.23898,0.987481 0.81414,-0.0051 1.7904,-0.634193 1.78717,-1.151683 -9.1e-4,-0.145607 -0.31413,-0.669163 -0.69605,-1.16346 -0.59783,-0.773745 -0.67096,-1.061954 -0.52584,-2.072619 0.15661,-1.090679 0.12006,-1.191993 -0.51552,-1.429112 -0.74469,-0.277829 -1.20957,-1.185996 -1.21701,-2.377483 -0.006,-0.915492 -0.61885,-1.177102 -2.13544,-0.911134 -1.01542,0.178078 -1.05332,0.157805 -1.22078,-0.653176 -0.24996,-1.210474 -1.17016,-1.489299 -2.59781,-0.787158 -1.1575,0.569283 -1.9939,0.704354 -1.99628,0.322402 -7.8e-4,-0.124268 -0.29623,-0.540113 -0.65657,-0.924092 -0.64648,-0.68889 -0.66901,-0.692499 -1.70008,-0.272468 -0.96151,0.391697 -1.09883,0.390833 -1.72024,-0.01077 -0.37143,-0.240078 -0.74308,-0.645477 -0.82592,-0.900905 -0.23066,-0.711355 -1.31074,-1.107233 -1.87678,-0.687894 -0.3796,0.281224 -0.43194,0.588707 -0.29163,1.713303 0.0941,0.753808 0.41406,1.70743 0.71111,2.119165 0.68612,0.950947 1.28478,3.188346 1.66618,6.227115 0.16449,1.31056 0.34561,2.530053 0.40249,2.709972 0.10714,0.338908 0.80118,0.163514 2.05309,-0.51885 z M 110.9847,48.906615 c 0.0604,-0.311753 0.16303,-1.952335 0.22821,-3.645745 0.10468,-2.719166 0.0634,-3.128166 -0.35315,-3.500455 -0.67816,-0.60607 -2.03009,-0.800329 -2.92994,-0.421008 -1.04103,0.438844 -1.11967,0.785182 -0.48899,2.153433 0.29463,0.639184 0.89396,2.227526 1.33185,3.529629 0.43789,1.302104 0.92978,2.448897 1.0931,2.54844 0.46031,0.280523 0.99784,-0.03863 1.11892,-0.664294 z m 112.89521,-2.146234 c -0.0795,-0.767269 0.009,-0.913586 0.72022,-1.187007 0.47869,-0.1841 0.80968,-0.501091 0.80798,-0.773796 -0.002,-0.395272 -1.12883,-2.20865 -3.66335,-5.897798 -0.9329,-1.357896 -2.51815,-1.995248 -4.69214,-1.886492 -1.4111,0.07061 -1.8894,0.198962 -2.11317,0.567185 -0.37719,0.620676 0.45704,1.290124 2.56496,2.058307 l 1.52485,0.555707 0.008,1.255046 c 0.009,1.437412 0.32112,1.801801 1.73185,2.021704 1.25522,0.195672 1.43855,0.715789 0.57431,1.629218 -1.42853,1.509793 -0.50296,2.720961 1.96609,2.572754 0.58367,-0.03504 0.65059,-0.142332 0.57057,-0.914828 z m -40.8144,-3.312227 c 1.37532,-0.06098 1.45918,-0.104406 1.53416,-0.794107 0.0565,-0.519162 -0.0596,-0.773633 -0.4024,-0.882206 -1.67182,-0.52958 -1.952,-0.725936 -2.16033,-1.514051 -0.20668,-0.781786 -0.30276,-0.834378 -1.79126,-0.980413 -1.89932,-0.186344 -2.52195,-0.389083 -4.15269,-1.352167 -1.37722,-0.813354 -2.13667,-0.828505 -2.2824,-0.04556 -0.11182,0.600789 0.61813,1.201247 1.45396,1.196032 0.93338,-0.0058 1.42784,0.686835 1.43611,2.011749 0.0139,2.221157 0.78218,2.816605 3.32343,2.575645 0.87262,-0.08275 2.24127,-0.179468 3.04142,-0.214941 z M -0.62002323,44.252855 c 0.47555218,-0.09977 0.59342841,-0.303829 0.58896267,-1.019575 -0.004631,-0.742225 0.15177272,-0.989016 0.91703154,-1.446989 1.07207562,-0.641592 1.16194682,-1.248694 0.33794742,-2.282893 -0.53739375,-0.674481 -0.67978515,-0.714843 -2.00846083,-0.56933 -1.78260047,0.195225 -2.70817147,0.772681 -2.70247267,1.686054 0.00492,0.787954 -0.7273194,2.485876 -1.0729776,2.488033 -0.1289369,8.04e-4 -0.2321829,0.361955 -0.2294339,0.802557 l 0.005,0.801104 1.7849295,-0.16712 c 0.9817112,-0.09193 2.05247522,-0.22324 2.37947547,-0.291841 z"
       id="path847" />
  </g>
</svg>
