<?xml version="1.0" encoding="UTF-8" standalone="no"?>
<svg
   xmlns:dc="http://purl.org/dc/elements/1.1/"
   xmlns:cc="http://creativecommons.org/ns#"
   xmlns:rdf="http://www.w3.org/1999/02/22-rdf-syntax-ns#"
   xmlns:svg="http://www.w3.org/2000/svg"
   xmlns="http://www.w3.org/2000/svg"
   xmlns:sodipodi="http://sodipodi.sourceforge.net/DTD/sodipodi-0.dtd"
   xmlns:inkscape="http://www.inkscape.org/namespaces/inkscape"
   width="111.82619mm"
   height="201.98677mm"
   viewBox="0 0 111.82619 201.98677"
   version="1.1"
   id="svg8"
   inkscape:version="1.0.2 (e86c870879, 2021-01-15, custom)"
   sodipodi:docname="Abstract floral ornament, 1913.svg">
  <defs
     id="defs2" />
  <sodipodi:namedview
     id="base"
     pagecolor="#ffffff"
     bordercolor="#666666"
     borderopacity="1.0"
     inkscape:pageopacity="0.0"
     inkscape:pageshadow="2"
     inkscape:zoom="0.49497475"
     inkscape:cx="214.73985"
     inkscape:cy="213.72669"
     inkscape:document-units="mm"
     inkscape:current-layer="layer1"
     inkscape:document-rotation="0"
     showgrid="false"
     showguides="true"
     inkscape:guide-bbox="true"
     inkscape:window-width="1920"
     inkscape:window-height="1057"
     inkscape:window-x="-8"
     inkscape:window-y="-8"
     inkscape:window-maximized="1">
    <sodipodi:guide
       position="45.602945,138.58463"
       orientation="1,0"
       id="guide26" />
  </sodipodi:namedview>
  <metadata
     id="metadata5">
    <rdf:RDF>
      <cc:Work
         rdf:about="">
        <dc:format>image/svg+xml</dc:format>
        <dc:type
           rdf:resource="http://purl.org/dc/dcmitype/StillImage" />
        <dc:title></dc:title>
      </cc:Work>
    </rdf:RDF>
  </metadata>
  <g
     inkscape:label="Layer 1"
     inkscape:groupmode="layer"
     id="layer1"
     transform="translate(-13.808595,-47.686052)">
    <path
       style="fill:#000000;stroke-width:0.264583"
       d="m 59.411499,249.32642 c -2.623194,-0.64422 -3.88668,-1.45297 -5.537191,-3.54427 -0.511095,-0.64759 -0.703349,-0.69324 -3.140148,-0.74562 -3.715914,-0.0799 -5.507549,-0.4308 -7.420715,-1.45347 -2.789209,-1.49093 -3.448986,-2.65359 -2.322597,-4.09285 0.829046,-1.05934 2.722161,-1.35589 8.218189,-1.28737 8.439209,0.10521 11.294271,0.51405 11.946788,1.7108 0.539207,0.98893 1.07614,1.34336 2.35445,1.55417 1.435127,0.23665 3.288264,-0.24834 3.646405,-0.95433 0.190181,-0.3749 0.166126,-1.27527 -0.08212,-3.0742 -0.391832,-2.83926 -0.656144,-22.30743 -0.582408,-42.89761 0.0406,-11.33681 -0.04168,-21.64878 -0.318817,-39.9547 l -0.286366,-18.91598 0.696579,-3.19104 c 1.089465,-4.99084 1.089162,-5.0385 -0.06495,-10.27504 -0.569258,-2.5829 -1.062675,-5.54935 -1.096487,-6.59212 -0.03381,-1.04277 -0.223219,-2.84514 -0.42091,-4.00524 -0.439334,-2.57813 -0.857062,-2.7199 -1.831112,-0.62145 -1.022275,2.20234 -1.219962,3.08694 -1.322943,5.91988 l -0.09396,2.58482 0.94131,0.84954 c 1.229916,1.11002 1.566228,1.74368 1.593857,3.00311 0.02816,1.28364 -0.860729,2.74595 -1.842104,3.03044 -1.028051,0.29802 -2.571009,-0.089 -3.35807,-0.84225 -0.981095,-0.93897 -1.727287,-3.30916 -1.994018,-6.33375 -0.212601,-2.41078 -0.285362,-2.6595 -0.856506,-2.92784 -1.019754,-0.47907 -1.232095,-0.81466 -1.40924,-2.22711 l -0.168545,-1.34382 -1.41818,-0.4926 c -0.779999,-0.27094 -1.462683,-0.62916 -1.517078,-0.79605 -0.05439,-0.16689 -0.177847,-0.62935 -0.27434,-1.0277 -0.119805,-0.49458 -0.484027,-0.86426 -1.148526,-1.16571 -2.272445,-1.03093 -2.000426,-2.04393 1.366678,-5.08948 1.343632,-1.21532 1.232179,-1.64954 -0.414119,-1.61343 -2.852427,0.0626 -7.883349,-2.37917 -10.288265,-4.993392 -1.314102,-1.428469 -1.549812,-2.307372 -0.966361,-3.603302 0.540843,-1.201289 0.220143,-1.879438 -0.87741,-1.85536 -0.760131,0.01668 -0.957734,0.256811 -1.32851,1.614453 -0.287675,1.053363 -1.039315,1.208088 -1.411399,0.290536 -0.212894,-0.524994 -0.399009,-0.651397 -0.73957,-0.5023 -1.204268,0.527225 -1.4066,0.477883 -2.483621,-0.605686 -2.286099,-2.299996 -3.399613,-6.378277 -2.33852,-8.564893 0.630584,-1.299459 1.408215,-2.065707 2.778218,-2.737552 1.413875,-0.693359 1.474943,-1.413676 0.224332,-2.646113 -1.181713,-1.164541 -1.218567,-1.67551 -0.186336,-2.58348 1.179818,-1.03779 2.00003,-1.17751 3.212944,-0.547312 1.212236,0.629845 1.687139,0.51098 1.858965,-0.465294 0.324925,-1.846146 0.898074,-4.069572 1.487615,-5.770916 0.749744,-2.163672 1.23899,-4.744974 1.441528,-7.60559 0.150891,-2.131187 -0.135137,-3.141272 -0.884865,-3.124824 -0.219887,0.0048 -1.360994,-0.517898 -2.535793,-1.161604 -1.754683,-0.961442 -2.502003,-1.208725 -4.186246,-1.385204 -2.893627,-0.3032 -4.449059,-0.08093 -6.484718,0.926673 -1.583842,0.783963 -1.815375,1.00195 -2.283263,2.149679 -0.68619,1.683226 -1.893141,2.981592 -2.985276,3.211382 -1.237322,0.260339 -3.176353,-0.236284 -4.667593,-1.195459 -2.027029,-1.303796 -2.596239,-3.451387 -1.676927,-6.326932 0.5787,-1.810135 0.346474,-2.690995 -0.912472,-3.46112 -1.336856,-0.817784 -1.514964,-1.286219 -0.793978,-2.088218 l 0.617984,-0.687422 8.06115,-0.03255 c 5.127916,-0.02071 8.604012,0.0798 9.553047,0.276216 1.234733,0.255546 1.718521,0.241789 2.806609,-0.07981 1.350597,-0.39919 3.774518,-0.394661 8.204393,0.01533 1.275523,0.118051 4.264565,0.05488 7.495865,-0.158439 4.367876,-0.288333 5.538654,-0.290334 6.251523,-0.01068 1.596369,0.626246 1.401535,2.244372 -0.384947,3.197008 -0.466231,0.248617 -1.081105,0.669495 -1.366386,0.935284 -0.285281,0.26579 -0.989283,0.714502 -1.564451,0.997139 -0.834189,0.409921 -1.277817,0.932715 -2.192811,2.584107 -0.630877,1.138622 -1.921864,3.394569 -2.868857,5.013216 -0.946992,1.618647 -1.71884,3.078145 -1.715216,3.243327 0.0036,0.165182 -0.181421,0.635163 -0.411208,1.044405 -0.253237,0.450998 -0.34804,0.998264 -0.24069,1.389434 0.236524,0.861863 1.713622,2.313838 2.165717,2.128877 0.198085,-0.08103 0.547347,-0.88954 0.776138,-1.796669 0.816563,-3.237553 1.213046,-4.336232 2.178932,-6.037966 0.538492,-0.948736 0.976142,-1.858838 0.972553,-2.022448 -0.0036,-0.163609 0.201677,-0.532905 0.45615,-0.820656 0.254474,-0.287752 0.961609,-1.185596 1.571414,-1.995208 0.8006,-1.062922 1.411352,-1.580679 2.197607,-1.862988 1.369167,-0.491605 1.688768,-0.765547 2.091819,-1.792964 0.177881,-0.453437 0.807965,-1.1762 1.400192,-1.60614 1.009829,-0.733112 1.150542,-0.764846 2.263341,-0.510457 1.666483,0.380962 1.691268,0.372572 2.185523,-0.739772 0.600469,-1.351379 1.593771,-1.828644 3.864372,-1.856766 2.100782,-0.02602 2.871528,0.269255 3.391876,1.299425 0.308656,0.611074 0.565636,0.733685 1.729775,0.825304 1.361917,0.107186 2.483714,0.743664 2.498498,1.417584 0.01571,0.716294 0.855666,1.150027 2.171218,1.121167 1.305454,-0.02864 3.054624,0.596769 3.610315,1.290853 0.151523,0.189259 0.557189,0.992929 0.90148,1.785934 0.344292,0.793003 0.895051,1.674105 1.223907,1.958003 1.404731,1.212685 3.257332,4.882749 4.756582,9.422943 0.429474,1.300582 1.003225,2.592554 1.275003,2.871047 0.488462,0.500534 0.50312,0.497365 1.275668,-0.275983 0.485436,-0.485939 0.775684,-1.048613 0.766107,-1.485171 -0.01599,-0.72886 -2.643911,-5.818349 -3.711533,-7.188113 -1.357613,-1.741826 -2.987353,-4.662156 -3.594711,-6.441359 -0.516518,-1.513106 -0.800666,-1.967269 -1.433047,-2.290506 -1.443745,-0.73796 -3.84305,-2.704805 -3.853003,-3.158524 -0.0054,-0.246124 0.173131,-0.638656 0.396738,-0.872292 0.582375,-0.608498 9.964369,-0.830454 11.394155,-0.269563 0.846298,0.331997 1.129489,0.326429 2.45505,-0.04826 1.121621,-0.31705 2.426172,-0.409923 5.188019,-0.369343 2.029296,0.02981 8.689616,-0.02949 14.800716,-0.131796 6.1111,-0.102305 11.262,-0.09297 11.44644,0.02074 0.69186,0.426543 0.35052,1.348381 -0.98404,2.657568 l -1.34422,1.318665 0.3402,1.168631 c 0.95903,3.294471 -0.0992,5.953435 -2.85658,7.177229 -2.54306,1.128691 -5.52834,-0.01965 -6.94635,-2.672024 -0.84559,-1.581647 -1.54264,-1.88459 -5.04901,-2.194315 -5.83207,-0.515159 -9.814989,-0.03013 -11.391448,1.387213 -1.027284,0.923596 -1.068801,2.960072 -0.130994,6.425182 0.397504,1.468737 0.848155,2.892915 1.001449,3.164838 0.712085,1.263152 1.63665,6.307483 1.641063,8.95345 0.0052,3.131195 0.07958,3.217315 2.07264,2.409451 1.85171,-0.750477 2.96149,-0.72654 3.97085,0.08565 1.10097,0.885899 1.18897,2.353286 0.20751,3.460039 -0.72853,0.821517 -0.72188,1.055554 0.10142,3.565555 l 0.48791,1.487603 -0.81323,2.441014 c -0.66029,1.981894 -1.0367,2.667321 -2.00129,3.644227 -1.37609,1.39366 -2.07301,1.665664 -3.17252,1.238233 -0.992035,-0.385652 -1.590905,-0.155171 -1.57421,0.605852 0.01332,0.607414 -1.072618,1.779927 -4.56818,4.932325 -2.282462,2.058384 -3.622459,2.790674 -5.819125,3.180044 -0.931162,0.16506 -1.800966,0.41289 -1.932899,0.55073 -0.383977,0.40121 0.07753,1.32895 0.856141,1.72102 1.126151,0.56708 2.033481,1.50436 2.595576,2.68128 0.443707,0.92904 0.472398,1.19955 0.201215,1.89712 -0.203579,0.52369 -0.562349,0.87372 -1.006855,0.9823 -1.418712,0.34659 -1.561216,0.43827 -1.854714,1.19327 -0.165179,0.4249 -0.745872,1.08165 -1.290429,1.45946 -0.54456,0.3778 -1.201625,1.14517 -1.460149,1.70525 -0.305866,0.66266 -0.807032,1.18541 -1.434863,1.49666 -0.8664,0.42953 -0.978483,0.60747 -1.098749,1.74431 -0.488873,4.62119 -1.177684,7.12099 -2.178343,7.90554 -0.585628,0.45915 -0.794142,0.48719 -1.721171,0.23146 -1.344759,-0.37095 -2.445649,-1.59414 -2.470905,-2.74538 -0.01045,-0.47637 0.279441,-1.45609 0.644203,-2.17717 0.981062,-1.93938 1.342807,-3.48766 1.298914,-5.55933 -0.04236,-2.00405 -0.318301,-3.19309 -1.236938,-5.33197 -0.907283,-2.11245 -1.189882,-1.77739 -1.307661,1.55041 -0.136314,3.85144 -0.643231,7.79271 -1.553125,12.0755 -0.999883,4.70635 -1.024405,5.43008 -0.287153,8.47501 0.175284,0.72393 0.454878,2.38508 0.621319,3.69142 0.405,3.17869 0.918539,22.44061 1.011903,37.95465 0.0416,6.91299 0.251274,23.34296 0.465939,36.51106 0.325468,19.96529 0.331106,24.48128 0.03394,27.18882 -0.269632,2.45666 -0.280486,3.33426 -0.04461,3.60612 0.388458,0.44771 4.303906,0.62685 5.548565,0.25386 0.623478,-0.18683 0.971986,-0.50834 1.210725,-1.1169 0.184379,-0.47001 0.590341,-1.09592 0.90214,-1.39091 0.540333,-0.51122 0.967221,-0.54515 9.108036,-0.72373 8.027763,-0.17611 8.575293,-0.15782 9.109463,0.30431 0.72597,0.62806 0.76165,1.85433 0.0877,3.01624 -0.36585,0.63077 -1.07427,1.16816 -2.451528,1.85963 -1.826112,0.91684 -2.1311,0.98435 -5.327546,1.17931 -3.792572,0.23132 -4.88153,0.49976 -5.544298,1.36669 -0.24983,0.32679 -1.013577,1.01214 -1.697211,1.523 -1.206529,0.90161 -1.331577,0.93418 -4.264707,1.11095 -2.956892,0.1782 -3.083463,0.16197 -5.898747,-0.75804 -1.582356,-0.51708 -2.997863,-1.02029 -3.145569,-1.11828 -0.971586,-0.64447 -1.780663,-0.47658 -4.287342,0.88971 -2.459271,1.34045 -5.276597,2.24505 -7.023488,2.25516 -0.43661,0.003 -1.436926,-0.15333 -2.222921,-0.34637 z m 11.74892,-49.92503 c -0.07737,-0.18024 -0.134147,-0.0302 -0.126168,0.33358 0.008,0.36371 0.07128,0.51119 0.140675,0.32772 0.06939,-0.18347 0.06286,-0.48105 -0.01451,-0.6613 z M 61.99981,123.12581 c 0.322638,-0.53726 -0.229708,-1.25847 -0.951675,-1.24263 -0.576582,0.0127 -0.670924,1.03534 -0.142192,1.54138 0.394295,0.37736 0.745424,0.28147 1.093867,-0.29875 z m 17.243723,-0.7136 c 0.281706,-0.45122 0.351885,-0.90484 0.215684,-1.39413 l -0.201892,-0.72528 -0.748997,0.9327 c -0.809886,1.00852 -0.925688,1.49778 -0.401442,1.69606 0.592523,0.22411 0.712228,0.17046 1.136647,-0.50935 z m -8.751362,-2.78722 c 0.516748,-1.53603 0.86311,-4.0145 0.899623,-6.43743 0.04162,-2.76212 -0.163402,-3.17218 -1.570584,-3.14131 -1.45486,0.0319 -1.54309,0.72913 -0.811118,6.40971 0.236637,1.83647 0.513845,3.4679 0.616019,3.62538 0.307893,0.47459 0.605661,0.31769 0.86606,-0.45635 z m -11.898059,-8.25395 c 0.0748,-0.25491 0.535799,-1.16164 1.024458,-2.01494 0.980731,-1.71257 1.057933,-2.02036 0.503722,-2.0082 -0.396991,0.009 -1.484438,1.35829 -2.448294,3.03847 -0.455638,0.79425 -0.512286,1.09174 -0.262675,1.37942 0.385302,0.44407 0.996526,0.24007 1.182789,-0.39475 z m 23.198337,-1.53341 c -0.09916,-0.76143 -1.447911,-2.7022 -1.744287,-2.50992 -0.351077,0.22777 -0.265013,0.75348 0.34173,2.08737 0.405567,0.89163 0.679432,1.19153 1.016855,1.11354 0.298277,-0.069 0.434851,-0.31361 0.385702,-0.69099 z m -24.575941,-1.82209 c 1.354771,-1.54209 1.591877,-2.2267 0.764912,-2.20856 -0.352338,0.008 -1.133518,0.59906 -1.993141,1.50874 -1.154844,1.22209 -1.340037,1.54039 -1.011412,1.73834 0.719173,0.4332 1.103101,0.25517 2.239641,-1.03852 z m 26.589694,0.25521 c -0.0081,-0.36825 -0.872471,-1.68792 -1.102302,-1.68288 -0.44717,0.01 -0.250769,1.29008 0.239535,1.56143 0.525898,0.29105 0.867543,0.33915 0.862767,0.12145 z M 71.003442,107.44 c 0.954963,-1.05687 2.131823,-3.04661 2.120026,-3.58436 -0.01236,-0.5633 -1.117246,-0.89953 -3.494399,-1.06341 -2.139527,-0.14749 -2.503704,0.14605 -2.205881,1.77811 0.189602,1.03901 2.104498,3.62982 2.673615,3.61734 0.129657,-0.003 0.537645,-0.3393 0.906639,-0.74768 z m 15.270517,-0.29718 c 0.697808,-0.28549 0.439593,-0.99642 -0.686682,-1.89065 -1.695468,-1.34614 -2.283777,-0.34453 -0.710263,1.20923 0.475521,0.46956 0.891014,0.85315 0.923319,0.85245 0.0323,-7.1e-4 0.245436,-0.0777 0.473626,-0.17103 z m -31.106173,-1.16917 c 1.026565,-0.7122 1.42175,-1.31387 1.144091,-1.74184 -0.278751,-0.42966 -0.961454,-0.23273 -2.780943,0.8022 -1.700575,0.96729 -2.045624,1.36265 -1.579824,1.81022 0.357727,0.34373 2.175523,-0.14825 3.216676,-0.87058 z m 10.131491,-2.97708 c 0.359471,-0.73417 0.348748,-0.82657 -0.15149,-1.30533 -0.296089,-0.28338 -0.840327,-0.57118 -1.20942,-0.63956 -0.369092,-0.0684 -0.943792,-0.17362 -1.277108,-0.23386 -0.333317,-0.0602 -1.229858,0.1963 -1.992313,0.57009 -1.770476,0.86793 -1.769319,1.54763 0.0029,1.72954 0.654812,0.0671 1.660466,0.36724 2.234781,0.66674 1.21737,0.63485 1.788122,0.44697 2.39261,-0.78762 z m 12.115648,-0.24048 c 0.644603,-0.29321 1.255639,-0.67531 1.357863,-0.84913 0.56233,-0.95614 -2.418419,-1.71077 -3.334706,-0.84423 -0.575432,0.54418 -0.653107,1.46148 -0.163436,1.93013 0.440855,0.42193 0.772922,0.3852 2.140279,-0.23677 z m -22.968713,-2.03565 c 0.522035,-0.23169 0.8859,-0.4818 0.808586,-0.5558 -0.07731,-0.074 -0.904596,-0.308003 -1.83841,-0.520029 -1.806469,-0.410167 -2.890675,-0.850178 -3.481673,-1.413001 -0.199912,-0.190381 -0.562185,-0.453165 -0.805053,-0.583964 -0.664439,-0.357842 -2.671537,-3.006978 -2.847057,-3.757783 -0.262452,-1.122664 -0.933458,-2.370441 -1.356324,-2.522154 -1.405106,-0.504122 -1.549398,2.521753 -0.200837,4.211621 1.487029,1.86338 2.546766,2.74517 4.098113,3.409979 0.869385,0.372564 1.823435,0.884958 2.120113,1.138651 0.474942,0.40614 1.756355,0.95093 2.346041,0.99741 0.114039,0.009 0.634465,-0.17323 1.156501,-0.40493 z m 15.423555,-0.41747 c -0.0058,-0.26363 0.244188,-1.013442 0.555492,-1.666224 1.587007,-3.32783 -0.529243,-8.307028 -2.407978,-5.665588 -0.787512,1.10722 -0.658797,3.633902 0.280561,5.507345 0.385233,0.768301 0.776107,1.603657 0.86861,1.856347 0.220815,0.60322 0.716754,0.58073 0.703314,-0.0319 z m -2.83682,-0.15335 c 0.08919,-0.0932 -0.01901,-0.501717 -0.240454,-0.907843 -0.264011,-0.484207 -0.420294,-1.544298 -0.453969,-3.079323 -0.04742,-2.161438 -0.289834,-2.970831 -0.885866,-2.957756 -0.671324,0.01473 -0.939697,4.060997 -0.363581,5.481689 0.520586,1.283746 1.447721,1.981643 1.94387,1.463233 z m 6.731838,-1.238873 c 0.665614,-1.361604 0.520866,-4.663963 -0.216013,-4.928339 -0.8062,-0.289246 -1.157498,0.624256 -1.107987,2.881165 0.02637,1.201991 0.129035,2.263053 0.228159,2.357914 0.329313,0.315177 0.863979,0.163566 1.095841,-0.31074 z M 59.21952,98.412516 c 0.263456,-0.519343 0.0881,-1.540677 -0.35814,-2.085943 -0.379647,-0.463894 -2.965198,-0.365955 -3.356489,0.127136 -0.482972,0.608629 0.46808,1.651312 1.88742,2.069266 1.562659,0.460159 1.536949,0.461713 1.827209,-0.110462 z m 21.994103,-0.672538 c 0.814519,-0.438662 2.440852,-3.483871 1.999295,-3.743561 -0.355375,-0.209003 -2.524482,0.40719 -3.325036,0.944564 -0.548176,0.367965 -1.615997,2.326745 -1.602551,2.939671 0.01458,0.664532 1.572105,0.58971 2.928292,-0.140677 z m -18.294922,0.173077 c 0.175351,-0.220969 0.302237,-1.420274 0.300837,-2.843419 -0.0021,-2.177765 -0.05721,-2.471102 -0.478516,-2.546657 -0.691972,-0.124112 -2.499612,2.049008 -2.492628,2.996604 0.01379,1.871519 1.808192,3.479888 2.670307,2.393472 z m 27.564682,-0.559999 c 1.609287,-1.385701 3.109302,-4.511617 2.953642,-6.155158 -0.244663,-2.5833 -1.737296,-0.970977 -3.185735,3.441201 -0.956723,2.914331 -0.891148,3.681142 0.232093,2.713957 z M 86.61203,96.966238 c 0.47739,-0.414213 0.467789,-1.07102 -0.02953,-2.020305 -0.213431,-0.407392 -0.496305,-1.087458 -0.62861,-1.511254 -0.132307,-0.423799 -0.359381,-0.758396 -0.504612,-0.74355 -0.391368,0.04001 -1.723029,3.994248 -1.515753,4.500887 0.139717,0.341516 0.406758,0.399594 1.238627,0.269383 0.58328,-0.09129 1.231225,-0.31412 1.43988,-0.495161 z m -9.896241,-0.105096 c 0.633113,-0.538713 1.503512,-1.990399 1.492566,-2.489365 -0.0055,-0.250805 -0.365479,-1.058161 -0.799952,-1.794127 -0.434469,-0.735966 -0.869938,-1.634094 -0.967708,-1.995838 -0.09777,-0.361746 -0.297051,-0.833159 -0.442852,-1.047585 -0.227975,-0.335284 -0.321367,-0.31471 -0.667095,0.146958 -0.317241,0.423633 -0.363606,0.982394 -0.219885,2.650005 0.418156,4.851931 0.605405,5.380439 1.604926,4.529952 z M 52.336535,95.203025 c -0.154493,-0.813155 -0.79932,-1.338984 -1.168702,-0.953032 -0.234576,0.2451 -0.229263,0.476597 0.02302,0.999425 0.390178,0.808847 1.301237,0.771957 1.145756,-0.04639 z m -3.090719,-1.774172 c -0.09747,-0.238238 -0.38364,-0.388692 -0.63594,-0.334338 -0.570971,0.123003 -0.753342,1.017527 -0.265912,1.304306 0.484054,0.284793 1.130675,-0.410662 0.901852,-0.969968 z m 10.241782,-0.447446 c 1.0992,-0.877192 1.550923,-2.204358 1.264447,-3.714961 -0.296156,-1.561656 -1.015762,-2.406943 -2.719776,-3.194802 -1.304002,-0.602913 -1.693122,-0.660893 -3.430086,-0.511108 -1.754315,0.151284 -2.062531,0.263367 -2.946999,1.071658 -1.097008,1.002529 -1.885445,2.206162 -1.871177,2.856554 0.0078,0.354967 0.214022,0.393702 1.231911,0.231367 2.482368,-0.395894 4.346568,0.720974 4.388429,2.629171 0.0117,0.533227 0.173417,1.119239 0.359377,1.302251 0.552396,0.543644 2.683464,0.160149 3.723874,-0.67013 z M 81.49976,91.29161 c 0.687034,-1.86844 3.451037,-2.511298 5.602757,-1.303106 1.617377,0.90816 2.152681,-0.378639 0.698615,-1.679376 -0.801133,-0.716654 -1.328663,-1.019643 -4.235938,-2.432926 -1.473896,-0.716491 -3.161837,-0.346811 -4.469153,0.978795 -0.928015,0.941001 -1.026834,1.173825 -1.000855,2.358077 0.02443,1.113379 0.162928,1.453821 0.90719,2.229891 1.205929,1.257472 1.996979,1.209528 2.497384,-0.151359 z m -8.26869,-0.639694 c 0.567104,-0.618533 0.815787,-1.266586 1.049778,-2.735661 0.168647,-1.058813 0.402047,-2.522665 0.518668,-3.253002 0.11662,-0.730338 0.336152,-1.673216 0.487849,-2.095287 0.151696,-0.422069 0.330748,-1.64668 0.397891,-2.72136 0.121637,-1.946914 0.119716,-1.953909 -0.532793,-1.939594 -0.626046,0.01373 -1.345882,0.715427 -3.938164,3.838902 -1.78196,2.147105 -1.973686,6.835931 -0.362099,8.855393 0.866641,1.08598 1.418816,1.097728 2.37887,0.05061 z m 28.88152,-0.228103 c 1.26578,-0.928627 1.62313,-4.388374 0.56932,-5.512127 -0.66225,-0.706212 -2.19219,-0.543202 -3.492494,0.372111 -1.225523,0.862664 -2.922462,2.938873 -2.765609,3.383726 0.05484,0.155542 0.584521,0.308173 1.177058,0.339177 0.777869,0.0407 1.366372,0.300598 2.117116,0.934967 1.159869,0.980071 1.596159,1.067916 2.394609,0.482146 z m -36.486282,-0.18699 c 0.178718,-0.186736 0.294216,-1.064854 0.272179,-2.069375 -0.03784,-1.724986 0.703756,-6.260877 1.175742,-7.191285 0.57128,-1.126138 0.0252,-3.33849 -1.114312,-4.514459 -0.679415,-0.701154 -2.22174,-1.295041 -4.119908,-1.586407 -0.914067,-0.140309 -1.012704,-0.09269 -1.264128,0.610217 -0.193197,0.540124 -0.183452,1.18481 0.03343,2.211243 0.168367,0.796864 0.379862,2.399955 0.469985,3.562424 0.116143,1.498044 0.458104,2.916397 1.174212,4.870211 0.555692,1.516145 1.016585,3.000629 1.02421,3.29885 0.01886,0.736719 0.523988,1.166185 1.350387,1.148055 0.378263,-0.0083 0.827458,-0.161061 0.998211,-0.339474 z m -28.193505,-0.04829 c 1.350916,-0.609728 1.45123,-1.296916 0.497808,-3.410232 -0.899624,-1.99407 -1.966136,-2.985112 -3.177536,-2.952688 -1.37493,0.03676 -1.560439,0.315215 -1.543208,2.316061 0.01632,1.89494 0.443781,3.033908 1.588062,4.231374 0.597584,0.625362 0.88513,0.605223 2.634874,-0.184515 z m 7.825349,-1.297125 c 0.305946,-0.172476 0.530908,-0.718728 0.632402,-1.535594 0.08664,-0.69734 0.381323,-1.80871 0.654839,-2.469712 2.192819,-5.299289 2.844599,-9.219046 1.951698,-11.737356 -0.870621,-2.455467 -1.406384,-3.227161 -2.228004,-3.209137 -0.652953,0.01432 -0.773809,0.166017 -1.116954,1.401964 -0.211631,0.762248 -0.619347,1.664375 -0.906035,2.004729 -2.153417,2.556504 -2.671978,4.018966 -2.770718,7.814061 -0.06512,2.502861 0.01307,3.190767 0.55513,4.88379 0.685205,2.140135 0.950184,2.570148 1.777467,2.884536 0.733109,0.278596 0.897336,0.274375 1.450174,-0.03731 z m 47.71217,-2.063095 c 0.339456,-0.707982 0.801609,-1.447248 1.027006,-1.642818 0.2254,-0.19557 0.407356,-0.467666 0.40435,-0.60466 -0.003,-0.136995 0.293528,-0.932783 0.658962,-1.768419 0.811522,-1.855713 1.02965,-4.847836 0.473592,-6.496451 -0.203586,-0.603602 -0.932795,-1.960279 -1.620463,-3.014836 l -1.2503,-1.917374 -1.092541,1.307153 c -2.053328,2.45668 -3.18133,7.028868 -2.504375,10.151134 0.668243,3.082094 1.837768,5.305289 2.780005,5.284619 0.339552,-0.0074 0.710064,-0.435527 1.123764,-1.298348 z M 77.430248,85.964379 c 0.162207,-0.377751 0.990365,-1.015272 2.058729,-1.584824 1.417303,-0.755576 1.800793,-1.091109 1.852252,-1.620611 0.08599,-0.884822 -0.388832,-1.215724 -2.209885,-1.540066 -1.884725,-0.335684 -2.184241,-0.09209 -2.480194,2.017105 -0.115689,0.824495 -0.340134,1.754931 -0.498766,2.067634 -0.158632,0.312705 -0.219763,0.73638 -0.135845,0.941498 0.240635,0.588179 1.11517,0.414512 1.413709,-0.280736 z M 50.21637,85.070221 c -0.0032,-0.145486 -0.05829,-0.263368 -0.122451,-0.261961 -0.06415,0.0014 -0.187605,0.123207 -0.274328,0.270665 -0.08673,0.147459 -0.03162,0.26534 0.122451,0.261961 0.154071,-0.0034 0.27752,-0.125179 0.274328,-0.270665 z m 9.353685,-0.895128 c 0.506826,-0.207352 0.526959,-1.668706 0.0319,-2.315475 -0.466523,-0.609487 -1.2437,-0.610656 -2.125902,-0.0032 -1.057015,0.727832 -0.868437,1.771636 0.392202,2.170893 1.128208,0.357313 1.178873,0.361715 1.701801,0.147775 z m -5.840698,-1.828408 c 0.844363,-0.746302 1.689149,-1.360291 1.877305,-1.364418 0.188153,-0.0041 0.339486,-0.126538 0.336295,-0.272024 -0.009,-0.411696 -0.398029,-0.30533 -1.052276,0.28773 -0.32911,0.298332 -0.76127,0.545995 -0.960358,0.550363 -0.500358,0.01098 -2.367009,1.335988 -2.532695,1.79779 -0.286909,0.799686 0.84523,0.314423 2.331729,-0.999441 z M 38.776831,81.904263 c -0.19179,-0.435731 -0.537581,-0.940909 -0.768431,-1.122615 -0.37114,-0.292134 -0.398232,-0.213236 -0.234028,0.681591 0.22039,1.201037 0.723253,1.889343 1.095874,1.500005 0.167908,-0.175439 0.135931,-0.537915 -0.09342,-1.058981 z m 30.777368,-0.399329 c 0.158505,-0.300008 0.783534,-1.385591 1.388951,-2.412398 1.204058,-2.042122 1.541546,-3.669041 1.475695,-7.113871 -0.02703,-1.41444 -0.144255,-1.971367 -0.469189,-2.229216 -0.36802,-0.292039 -0.486844,-0.266803 -0.790259,0.167838 -0.196413,0.281358 -0.353601,0.671545 -0.349311,0.867086 0.0043,0.195541 -0.152551,0.622811 -0.348536,0.94949 -0.211091,0.351863 -0.386967,1.637418 -0.43149,3.153967 -0.0613,2.087981 -0.22556,2.952202 -0.890859,4.687069 -1.017241,2.652607 -0.713383,4.065767 0.414998,1.930035 z M 52.083686,80.206548 c 0.512436,-0.625951 0.99725,-1.440452 1.077362,-1.810003 0.08011,-0.36955 0.411049,-1.233573 0.735412,-1.920051 0.324364,-0.686475 0.654643,-1.720108 0.733953,-2.29696 0.123762,-0.900181 0.05588,-1.107845 -0.479046,-1.46529 -0.761981,-0.509172 -0.69954,-0.620992 -1.774794,3.178267 -0.455974,1.611117 -1.090869,3.338714 -1.410877,3.839102 -1.203863,1.88244 -0.336067,2.251092 1.11799,0.474935 z m 28.91164,-1.302965 c -0.118695,-0.556147 -1.171033,-0.733191 -1.68863,-0.284093 -0.54837,0.475799 -0.19798,0.788613 0.857408,0.765461 0.742603,-0.01629 0.909812,-0.113122 0.831222,-0.481368 z m 4.952887,-2.637562 c -0.218329,-2.761798 -0.528905,-3.259508 -1.157821,-1.855459 -0.477282,1.065523 -0.364324,2.74825 0.276123,4.113411 0.269459,0.574372 0.407373,0.652646 0.701016,0.397865 0.283422,-0.245916 0.32402,-0.842646 0.180682,-2.655817 z m -28.154147,0.495973 c 0.837653,-0.162249 1.238084,-0.950432 1.075174,-2.116306 -0.05732,-0.410219 -0.121049,-0.894003 -0.141617,-1.075079 -0.02057,-0.181072 -0.448085,-0.76715 -0.950038,-1.302393 -0.986079,-1.051477 -2.084019,-2.926214 -2.098429,-3.58308 -0.01445,-0.658887 -0.529777,-0.455354 -0.804451,0.317726 -0.29733,0.836847 -0.06226,2.067948 0.569969,2.984961 0.316104,0.458492 0.469677,1.279122 0.517899,2.767432 0.08564,2.642929 0.07675,2.609667 0.629274,2.358904 0.252212,-0.11447 0.793209,-0.272945 1.202219,-0.352165 z m 24.908636,-0.330827 c 0.264465,-0.449675 0.189368,-2.14418 -0.107626,-2.428421 -0.202778,-0.194072 -0.814757,-0.01826 -2.081142,0.597851 -2.492543,1.212667 -2.568638,1.262946 -2.654082,1.753666 -0.06598,0.378879 0.238457,0.429537 2.308468,0.384126 1.311455,-0.02877 2.451924,-0.167019 2.53438,-0.307222 z M 68.463398,73.571205 c -0.52387,-1.755685 -1.890265,-3.221236 -3.727182,-3.997655 -2.076902,-0.877852 -2.813862,-0.932282 -2.901485,-0.214296 -0.05065,0.415052 0.411641,0.926924 1.818438,2.013446 2.451867,1.893664 3.463629,2.942987 3.831172,3.973398 0.164216,0.460377 0.500973,0.872418 0.74835,0.915642 0.600775,0.104977 0.704365,-1.103117 0.230707,-2.690535 z m 9.477161,0.628734 c 2.272716,-1.142321 3.406491,-2.04065 4.234567,-3.355194 0.975595,-1.548725 1.174511,-2.452544 0.634141,-2.881354 -0.350449,-0.278094 -0.702117,-0.180943 -2.158457,0.596285 -1.893683,1.01063 -4.004157,2.878068 -3.989847,3.530389 0.0049,0.225169 -0.163324,0.774631 -0.373916,1.221026 -0.313657,0.664857 -0.286691,1.666204 0.0447,1.658934 0.04411,-9.68e-4 0.768091,-0.347506 1.608835,-0.770087 z m 18.816986,-1.74941 c 0.275396,-0.542875 -0.07206,-1.660262 -1.199301,-3.856842 -0.369324,-0.719677 -0.760819,-1.574627 -0.869992,-1.899886 -0.231681,-0.690254 -1.182683,-1.25755 -1.519016,-0.906131 -0.22847,0.238719 0.05469,1.297582 0.759948,2.841754 1.366107,2.991125 1.85957,3.937144 2.143239,4.108827 0.428565,0.259374 0.401906,0.270568 0.685122,-0.287722 z m -44.962888,0.0087 c 0.267525,-0.663961 0.659314,-1.277941 0.870641,-1.364401 0.243368,-0.09957 0.43448,-0.708081 0.521294,-1.659855 0.07538,-0.826467 0.577146,-2.911507 1.115021,-4.633426 0.774844,-2.480526 0.916709,-3.239409 0.683055,-3.65388 -0.519452,-0.921437 -1.173743,-0.592682 -2.064707,1.037426 -1.016397,1.859601 -2.361415,6.03011 -2.301505,7.136288 0.02381,0.439715 -0.102552,1.335671 -0.280815,1.991013 -0.231228,0.850056 -0.242827,1.360396 -0.04047,1.780763 0.438762,0.911489 0.964477,0.688939 1.497492,-0.633928 z m 11.642803,0.03406 c -0.0081,-0.369367 -0.340994,-0.653565 -2.288615,-1.953854 -0.527707,-0.352312 -1.504998,-1.035033 -2.171759,-1.517156 -0.886403,-0.640944 -1.28929,-0.796132 -1.498727,-0.5773 -0.693355,0.72446 1.794437,3.760259 3.442529,4.200847 1.309175,0.349984 2.525978,0.276231 2.516572,-0.152541 z m 24.847293,-1.345784 c -0.01102,-0.502354 -0.141385,-1.184268 -0.289697,-1.515365 -0.148315,-0.331096 -0.477518,-1.289118 -0.731568,-2.128938 -0.390254,-1.290088 -0.546748,-1.512442 -1.008866,-1.433427 -0.386476,0.06608 -0.653276,0.445285 -0.909298,1.292381 -0.199286,0.659373 -0.518379,1.518386 -0.709099,1.908917 -0.19072,0.390531 -0.339986,1.019034 -0.331702,1.396673 0.01407,0.641595 0.09746,0.685362 1.271716,0.667465 0.691158,-0.01056 1.491547,0.150547 1.77864,0.357951 0.779034,0.562805 0.951965,0.461329 0.929874,-0.545657 z M 69.447128,69.470041 c 0.361848,-1.41088 0.232559,-2.393409 -0.327303,-2.487314 -0.752312,-0.126189 -1.295056,2.05455 -0.807769,3.245615 0.311734,0.761966 0.834789,0.412532 1.135072,-0.758301 z m 5.753173,-1.733914 c 0.126415,-0.738389 -1.638951,-3.025442 -2.324183,-3.011016 -1.015966,0.02149 -0.923813,0.508389 0.34111,1.80259 0.677704,0.693393 1.235402,1.407082 1.239327,1.585977 0.01069,0.487417 0.65134,0.162201 0.743746,-0.377551 z m -8.753087,0.239112 c 0.140351,-0.185024 0.385282,-0.773229 0.544291,-1.307123 0.159009,-0.533894 0.574115,-1.317093 0.922459,-1.740441 0.533611,-0.648509 0.606779,-0.956691 0.464609,-1.956936 -0.205091,-1.442955 0.111435,-2.126835 0.749887,-1.620194 0.234085,0.185754 0.529445,0.707528 0.656358,1.159494 0.171036,0.609112 0.402384,0.838401 0.894027,0.886065 1.076149,0.104333 2.078149,-0.447078 2.352993,-1.294877 0.151563,-0.467519 0.562297,-0.912756 1.033257,-1.120049 0.429933,-0.189235 0.960724,-0.718264 1.179534,-1.175618 0.473828,-0.990386 1.587931,-2.025774 2.208728,-2.052674 0.244683,-0.01057 0.525419,0.216434 0.62386,0.504524 0.700096,2.048833 3.341028,1.478905 3.292995,-0.710646 -0.02925,-1.333375 -0.258255,-1.703105 -1.394733,-2.251821 -2.647405,-1.278222 -5.705257,0.425567 -6.695982,3.730901 -0.317648,1.05977 -0.874718,1.132232 -1.96916,0.256144 -0.496373,-0.397343 -1.143103,-0.850726 -1.437175,-1.00752 -0.639979,-0.341223 -0.697124,-1.557868 -0.144909,-3.085148 0.443729,-1.227236 0.18253,-3.120753 -0.53518,-3.87967 -1.532097,-1.620068 -5.150903,1.413621 -4.623905,3.876275 0.0941,0.439725 0.50132,0.918849 1.060435,1.247675 0.499215,0.293601 0.910041,0.642052 0.912943,0.774335 0.0029,0.132282 -0.399168,0.518436 -0.893487,0.858119 -1.358738,0.933686 -1.947869,2.426421 -1.882633,4.770204 0.0665,2.389546 0.387621,3.958599 0.989388,4.834485 0.487874,0.710111 1.276081,0.85201 1.691398,0.304496 z m 13.648107,-0.935 c 1.08303,-0.545931 1.296293,-1.249135 0.884231,-2.915657 -0.419083,-1.694934 -0.677871,-2.075046 -1.735132,-2.548627 -1.283802,-0.575054 -2.200627,-0.512022 -2.361261,0.162337 -0.137071,0.575439 0.55964,5.058587 0.857482,5.517679 0.259393,0.39982 1.327708,0.301944 2.35468,-0.215732 z M 61.775863,65.166597 c -0.100696,-0.76196 -0.358058,-1.560179 -0.571913,-1.773821 -0.601027,-0.600433 -1.185053,0.374638 -0.955932,1.595996 0.276347,1.473116 0.356374,1.592921 1.053793,1.577621 0.635773,-0.01395 0.651186,-0.05946 0.474052,-1.399796 z m 22.634108,-0.934359 c 0.291608,-0.429145 0.522604,-1.126391 0.513323,-1.549435 -0.02341,-1.067057 -1.035711,-2.963413 -1.57559,-2.951569 -0.82182,0.01803 -1.640472,1.114595 -1.617397,2.166469 0.02035,0.927807 0.56765,2.51916 1.011558,2.941276 0.429259,0.408186 1.158752,0.142845 1.668106,-0.606741 z M 58.66337,64.440936 c 0.323479,-1.185887 0.138187,-1.759652 -0.624366,-1.933355 -1.55449,-0.3541 -2.05313,0.622944 -0.960011,1.881054 0.977872,1.125468 1.288845,1.135731 1.584377,0.0523 z m 35.586462,-3.986777 c -0.308528,-2.412745 -0.279927,-4.787704 0.07308,-6.068327 0.15293,-0.554788 0.84705,-1.688452 1.54249,-2.519253 1.089792,-1.301913 1.211637,-1.56108 0.882182,-1.876393 -0.286618,-0.274313 -0.731371,-0.311714 -1.777661,-0.149495 -1.783342,0.276496 -2.842146,1.219946 -3.732118,3.325515 -0.662418,1.567214 -0.663815,1.588803 -0.241301,3.730613 0.29977,1.51959 0.687341,2.553992 1.315512,3.511001 1.86951,2.848167 2.297404,2.858401 1.937812,0.04634 z M 45.400571,59.880724 C 47.2109,55.780195 47.20484,53.873061 45.375781,52.080339 44.592784,51.312897 44.01827,51.016494 42.920472,50.8136 42.13225,50.66792 41.317494,50.618214 41.109907,50.703141 c -0.593734,0.242906 -0.422013,1.210004 0.445967,2.511616 1.02839,1.54216 1.966665,4.18634 2.197968,6.194155 0.153645,1.333722 0.47626,2.239052 0.795389,2.232051 0.04121,-9.04e-4 0.424315,-0.793012 0.851335,-1.760239 z m 13.972811,-0.31273 c 0.790956,-0.523079 1.316353,-0.49298 2.134883,0.122301 0.602367,0.452795 0.745768,0.471413 1.064653,0.138224 0.467387,-0.488354 0.192083,-1.736564 -0.593658,-2.6916 -1.593865,-1.937277 -4.779318,-1.512906 -5.489936,0.731378 -0.633652,2.001215 0.985347,2.95536 2.884058,1.699697 z m 60.501898,-1.596989 c 0.51304,-0.209892 1.42189,-2.007955 1.40496,-2.779573 -0.0329,-1.499152 -1.83294,-2.906623 -3.15965,-2.470544 -0.25517,0.08387 -0.99917,0.183765 -1.65333,0.221984 -2.2627,0.132198 -2.85717,0.503923 -2.04657,1.279725 0.17257,0.165162 0.51541,0.864156 0.76186,1.55332 0.35453,0.991422 0.67171,1.372492 1.51923,1.825246 1.05393,0.563029 2.33608,0.712451 3.1735,0.369842 z m -97.424961,1.138034 c 0.103372,-0.162522 0.184003,-0.558541 0.179179,-0.880046 -0.02007,-1.334534 3.1713,-3.318932 5.428967,-3.375786 1.399123,-0.03519 2.027429,-0.331475 1.836127,-0.865723 -0.09903,-0.276555 -1.031553,-0.357976 -4.075929,-0.355877 -2.171139,0.0015 -4.58327,-0.0051 -5.360293,-0.01473 -1.249954,-0.01544 -1.484452,0.06969 -2.034807,0.738729 -0.755177,0.918029 -0.818128,2.912189 -0.121889,3.861212 0.898683,1.224968 3.57139,1.79977 4.148645,0.892223 z m 50.214772,-2.120734 c 0.219366,-0.186757 0.755706,-0.965891 1.191871,-1.731408 0.769564,-1.350675 0.778774,-1.408682 0.311322,-1.960751 -0.402861,-0.475787 -0.57213,-0.517923 -1.03419,-0.257441 -1.148567,0.647493 -2.266399,3.059879 -1.791555,3.866346 0.306168,0.519991 0.774907,0.549499 1.322552,0.08325 z M 63.22915,54.714023 c 0.261274,-0.728236 -0.617503,-1.805684 -1.457703,-1.787252 -0.971038,0.0213 -1.10978,0.786297 -0.293436,1.617929 0.706434,0.719661 1.525283,0.798838 1.751139,0.169323 z m 24.144879,-2.174347 c 0.222117,-1.221972 -0.126159,-2.271487 -0.781,-2.353536 -0.96274,-0.120627 -1.180758,0.52763 -0.690794,2.054013 0.515538,1.60605 1.20867,1.747108 1.471794,0.299523 z M 51.170449,52.431551 C 51.31509,51.14904 50.933,50.530055 50.433538,51.237754 c -0.39269,0.556409 -0.180883,2.338681 0.276738,2.328642 0.191613,-0.0042 0.387004,-0.486057 0.460173,-1.134845 z m 58.166991,-1.79102 c 2.35673,0.03018 2.8152,-0.180307 1.66435,-0.764119 -0.83425,-0.423206 -5.45256,-0.01087 -5.44167,0.485851 0.0115,0.526199 0.33642,0.689806 0.91725,0.461934 0.29907,-0.117328 1.58611,-0.199978 2.86007,-0.183666 z M 53.702588,50.9672 c -0.0054,-0.24633 -0.188335,-0.377323 -0.448243,-0.320975 -0.660795,0.14326 -0.738357,0.763382 -0.09371,0.74924 0.324917,-0.0071 0.547335,-0.182887 0.541953,-0.428265 z"
       id="path24" />
  </g>
</svg>
