<?xml version="1.0" encoding="UTF-8" standalone="no"?>
<!-- Created with Inkscape (http://www.inkscape.org/) -->

<svg
   width="178.19914mm"
   height="178.19914mm"
   viewBox="0 0 178.19914 178.19914"
   version="1.1"
   id="svg1"
   inkscape:version="1.4.3 (0d15f75, 2025-12-25)"
   sodipodi:docname="monogram.svg"
   inkscape:export-filename="monogram.png"
   inkscape:export-xdpi="28.507433"
   inkscape:export-ydpi="28.507433"
   xmlns:inkscape="http://www.inkscape.org/namespaces/inkscape"
   xmlns:sodipodi="http://sodipodi.sourceforge.net/DTD/sodipodi-0.dtd"
   xmlns="http://www.w3.org/2000/svg"
   xmlns:svg="http://www.w3.org/2000/svg">
  <sodipodi:namedview
     id="namedview1"
     pagecolor="#ffffff"
     bordercolor="#000000"
     borderopacity="0.25"
     inkscape:showpageshadow="2"
     inkscape:pageopacity="0.0"
     inkscape:pagecheckerboard="true"
     inkscape:deskcolor="#d1d1d1"
     inkscape:document-units="mm"
     inkscape:zoom="0.72164075"
     inkscape:cx="275.76048"
     inkscape:cy="356.82575"
     inkscape:window-width="1445"
     inkscape:window-height="812"
     inkscape:window-x="0"
     inkscape:window-y="33"
     inkscape:window-maximized="0"
     inkscape:current-layer="layer1" />
  <defs
     id="defs1" />
  <circle
     style="fill:#ffffff;stroke:#000000;stroke-width:0.865;stroke-dasharray:none;stroke-opacity:1"
     id="path1"
     cx="89.099571"
     cy="89.099571"
     r="88.167068" />
  <g
     inkscape:label="Layer 1"
     inkscape:groupmode="layer"
     id="layer1"
     transform="translate(-15.653384,-40.968684)">
    <path
       style="font-weight:900;font-size:101.412px;line-height:0;font-family:'Snell Roundhand';-inkscape-font-specification:'Snell Roundhand Heavy';stroke-width:1.81823"
       d="m 153.41332,45.941104 q -4.66495,4.56354 -9.53272,10.039788 -4.76637,5.476248 -9.32991,11.358144 -4.46213,5.881897 -8.41719,12.068029 -3.95507,6.08472 -6.89602,12.068028 -2.94095,5.881896 -4.66495,11.358147 -1.72401,5.47625 -1.72401,10.1412 0,2.73812 1.11554,3.85365 1.11553,1.11554 2.43388,1.11554 3.54942,0 7.50449,-2.63672 3.95507,-2.63671 7.91014,-6.59178 3.95507,-3.95506 7.70731,-8.5186 3.75224,-4.563545 6.7946,-8.417201 l 0.70989,0.709884 q -3.44801,4.360716 -6.89602,8.518607 -3.34659,4.05648 -7.30166,8.11296 -2.02824,2.12965 -4.36072,4.15789 -2.23106,1.92683 -4.86777,3.44801 -2.5353,1.41977 -5.47625,2.33248 -2.94095,0.91271 -6.38896,0.91271 -5.37483,0 -8.51861,-2.5353 -3.14377,-2.5353 -3.14377,-7.80873 0,-3.04236 0.60847,-5.98331 0.70989,-2.94094 1.72401,-5.780481 1.11553,-2.839536 2.43389,-5.57766 1.31835,-2.839536 2.63671,-5.374836 H 93.884479 q -4.664952,4.969188 -9.938376,10.64826 -5.273424,5.679077 -11.15532,10.546847 -5.881897,4.76637 -12.372265,7.91014 -6.490368,3.14377 -13.589208,3.14377 -7.6059,0 -11.763792,-3.3466 -4.157892,-3.448 -4.157892,-8.82284 0,-1.31836 0.405648,-2.63671 0.405648,-1.41977 1.318356,-2.5353 0.912708,-1.21695 2.332476,-1.926831 1.318356,-0.811296 3.245184,-0.811296 2.02824,0 3.955068,1.318357 1.926828,1.31836 1.926828,4.56354 0,2.43389 -1.622592,3.75224 -1.52118,1.31836 -3.245184,1.31836 0.202824,3.24518 2.940948,4.86778 2.738124,1.62259 6.794604,1.62259 5.983308,0 12.16944,-3.14377 6.186132,-3.14378 11.966617,-7.80873 5.780484,-4.76636 10.952496,-10.141199 5.273424,-5.476248 9.329904,-10.039788 2.02824,-2.231064 5.172012,-5.679072 3.245189,-3.448008 7.403079,-7.403076 4.2593,-4.056481 9.3299,-8.214373 5.17201,-4.259304 10.9525,-8.011548 5.88189,-3.853656 12.37226,-6.896016 6.59178,-3.04236 13.69062,-4.664952 z m -45.33116,39.753505 q 5.17201,-9.228492 12.16944,-17.442865 7.09884,-8.214372 14.90756,-15.516036 l -0.20282,-0.202824 q -5.57766,2.636712 -11.15532,6.59178 -5.47625,3.955068 -10.64826,8.518608 -5.0706,4.462129 -9.73555,9.228493 -4.664955,4.664952 -8.620023,8.822844 z"
       id="text1"
       transform="scale(0.87482337,1.1430879)"
       aria-label="A " />
    <path
       style="font-weight:900;font-size:129.978px;line-height:0;font-family:'Snell Roundhand';-inkscape-font-specification:'Snell Roundhand Heavy';stroke-width:2.33039"
       d="m 82.32514,205.74197 q 5.19912,-4.67921 8.058636,-11.04813 2.989494,-6.4989 5.069142,-14.03762 2.209626,-7.53873 4.419252,-15.72734 2.20963,-8.18861 6.10897,-16.50721 3.89934,-8.31859 10.39824,-16.37722 6.4989,-8.18862 17.02711,-15.33741 l -0.25995,-0.25995 q -5.3291,1.94967 -11.43807,3.76936 -5.97898,1.68971 -11.95797,3.63938 -5.84901,1.81969 -11.438066,4.1593 -5.459076,2.20962 -9.618372,5.3291 -4.159296,2.98949 -6.758856,7.01881 -2.469582,3.89934 -2.469582,9.35841 0,3.11948 2.079648,5.84901 2.079648,2.59956 5.84901,2.59956 2.59956,0 4.419252,-1.42975 1.94967,-1.42976 3.119472,-3.37943 1.29978,-1.94967 1.819692,-4.02932 0.64989,-2.20963 0.64989,-3.63938 0,-1.68972 -0.389934,-3.37943 -0.259956,-1.81969 -0.64989,-3.24945 l 1.29978,-0.51991 q 0.64989,1.55973 0.909846,3.24945 0.389934,1.55973 0.389934,3.5094 0,3.11947 -1.039824,6.10897 -1.039824,2.98949 -3.119472,5.19912 -2.079648,2.20962 -5.329098,3.63938 -3.119472,1.29978 -7.408746,1.29978 -5.069142,0 -8.708526,-3.5094 -3.509405,-3.50941 -3.509405,-8.70853 0,-5.3291 2.469581,-9.22844 2.59956,-4.02932 6.758856,-7.01881 4.289274,-2.98949 9.618372,-5.06914 5.459076,-2.20963 11.308088,-3.89934 5.84901,-1.68972 11.69802,-2.98949 5.84901,-1.42976 10.78817,-2.85952 4.02932,-1.1698 6.88884,-2.07965 2.85951,-0.90984 5.06914,-1.81969 2.20962,-0.90985 4.02931,-1.68971 1.8197,-0.90985 3.63939,-1.8197 l 0.90984,0.77987 q -5.97898,4.02932 -9.74835,9.87833 -3.63938,5.84901 -6.23894,12.86782 -2.59956,6.88883 -4.80918,14.81749 -2.07965,7.79868 -4.93917,15.9873 -2.72954,8.05863 -6.75885,16.11727 -4.02932,7.92866 -10.52822,15.3374 l 0.25995,0.25996 q 7.92866,-4.02932 15.9873,-8.70853 8.05863,-4.80918 15.3374,-10.13828 7.40875,-5.45908 13.77767,-11.43807 6.36892,-6.10896 11.04813,-12.73784 4.67921,-6.62888 7.27877,-13.77767 2.72953,-7.27877 2.72953,-14.94747 -1.03982,-0.77987 -1.94967,-2.3396 -0.90984,-1.55974 -0.90984,-3.76936 0,-3.63939 2.46958,-5.84901 2.59956,-2.33961 6.10897,-2.33961 5.32909,0 7.53872,3.76937 2.3396,3.63938 2.3396,8.31859 0,6.75885 -3.89934,14.03762 -3.89934,7.27877 -10.39824,14.55754 -6.4989,7.14879 -15.20742,14.03762 -8.57855,6.88883 -17.93697,12.86782 -10.52821,6.75886 -18.8468,11.43807 -8.18862,4.6792 -14.42756,8.05863 -6.108968,3.24945 -10.398242,5.58906 -4.289274,2.20962 -7.018812,4.02931 z"
       id="text1-1"
       transform="scale(0.9904282,1.0096643)"
       aria-label="V " />
  </g>
</svg>
